<svg width="3147" height="512" viewBox="0 0 3147 512" fill="none" xmlns="http://www.w3.org/2000/svg">
<path d="M2174.01 442.49C2148 442.49 2126.84 436.887 2110.51 425.682C2094.19 414.477 2083.12 399.883 2077.31 381.9H2111.76C2115.91 392.137 2123.1 400.091 2133.34 405.762C2143.58 411.434 2156.58 414.27 2172.35 414.27C2196.14 414.27 2213.5 408.667 2224.43 397.462C2235.36 386.257 2240.82 370.003 2240.82 348.7V320.065C2233.08 331.132 2223.05 340.054 2210.74 346.832C2198.43 353.611 2183.69 357 2166.54 357C2146.34 357 2128.71 352.366 2113.63 343.097C2098.55 333.829 2086.86 321.172 2078.56 305.125C2070.26 289.078 2066.11 271.233 2066.11 251.59C2066.11 231.67 2070.26 213.756 2078.56 197.847C2086.86 181.939 2098.55 169.351 2113.63 160.082C2128.71 150.814 2146.34 146.18 2166.54 146.18C2183.69 146.18 2198.43 149.431 2210.74 155.932C2223.05 162.434 2233.08 171.357 2240.82 182.7V149.5H2271.95V350.775C2271.95 380.378 2263.44 403.065 2246.43 418.835C2229.41 434.605 2205.27 442.49 2174.01 442.49ZM2170.69 328.78C2185.91 328.78 2198.84 325.322 2209.49 318.405C2220.14 311.488 2228.31 302.151 2233.98 290.392C2239.65 278.634 2242.48 265.7 2242.48 251.59C2242.48 237.203 2239.65 224.2 2233.98 212.58C2228.31 200.96 2220.14 191.692 2209.49 184.775C2198.84 177.858 2185.91 174.4 2170.69 174.4C2155.47 174.4 2142.33 177.858 2131.26 184.775C2120.2 191.692 2111.76 200.96 2105.95 212.58C2100.14 224.2 2097.23 237.203 2097.23 251.59C2097.23 265.7 2100.14 278.634 2105.95 290.392C2111.76 302.151 2120.2 311.488 2131.26 318.405C2142.33 325.322 2155.47 328.78 2170.69 328.78Z" fill="white"/>
<path d="M2174.01 442.49C2148 442.49 2126.84 436.887 2110.51 425.682C2094.19 414.477 2083.12 399.883 2077.31 381.9H2111.76C2115.91 392.137 2123.1 400.091 2133.34 405.762C2143.58 411.434 2156.58 414.27 2172.35 414.27C2196.14 414.27 2213.5 408.667 2224.43 397.462C2235.36 386.257 2240.82 370.003 2240.82 348.7V320.065C2233.08 331.132 2223.05 340.054 2210.74 346.832C2198.43 353.611 2183.69 357 2166.54 357C2146.34 357 2128.71 352.366 2113.63 343.097C2098.55 333.829 2086.86 321.172 2078.56 305.125C2070.26 289.078 2066.11 271.233 2066.11 251.59C2066.11 231.67 2070.26 213.756 2078.56 197.847C2086.86 181.939 2098.55 169.351 2113.63 160.082C2128.71 150.814 2146.34 146.18 2166.54 146.18C2183.69 146.18 2198.43 149.431 2210.74 155.932C2223.05 162.434 2233.08 171.357 2240.82 182.7V149.5H2271.95V350.775C2271.95 380.378 2263.44 403.065 2246.43 418.835C2229.41 434.605 2205.27 442.49 2174.01 442.49ZM2170.69 328.78C2185.91 328.78 2198.84 325.322 2209.49 318.405C2220.14 311.488 2228.31 302.151 2233.98 290.392C2239.65 278.634 2242.48 265.7 2242.48 251.59C2242.48 237.203 2239.65 224.2 2233.98 212.58C2228.31 200.96 2220.14 191.692 2209.49 184.775C2198.84 177.858 2185.91 174.4 2170.69 174.4C2155.47 174.4 2142.33 177.858 2131.26 184.775C2120.2 191.692 2111.76 200.96 2105.95 212.58C2100.14 224.2 2097.23 237.203 2097.23 251.59C2097.23 265.7 2100.14 278.634 2105.95 290.392C2111.76 302.151 2120.2 311.488 2131.26 318.405C2142.33 325.322 2155.47 328.78 2170.69 328.78Z" fill="#0C98EB" stroke="#0C98EB" stroke-width="16"/>
<path d="M2325.9 357V149.5H2357.03V200.545C2358.13 196.948 2360.28 192.176 2363.46 186.227C2366.64 180.279 2371.27 174.262 2377.36 168.175C2383.45 162.088 2391.12 156.901 2400.39 152.612C2409.66 148.324 2420.66 146.18 2433.39 146.18H2435.46V177.305H2431.73C2416.23 177.305 2402.88 181.524 2391.68 189.962C2380.47 198.401 2371.9 209.329 2365.95 222.747C2360 236.166 2357.03 250.483 2357.03 265.7V357H2325.9Z" fill="white"/>
<path d="M2325.9 357V149.5H2357.03V200.545C2358.13 196.948 2360.28 192.176 2363.46 186.227C2366.64 180.279 2371.27 174.262 2377.36 168.175C2383.45 162.088 2391.12 156.901 2400.39 152.612C2409.66 148.324 2420.66 146.18 2433.39 146.18H2435.46V177.305H2431.73C2416.23 177.305 2402.88 181.524 2391.68 189.962C2380.47 198.401 2371.9 209.329 2365.95 222.747C2360 236.166 2357.03 250.483 2357.03 265.7V357H2325.9Z" fill="#0C98EB" stroke="#0C98EB" stroke-width="16"/>
<path d="M2553.73 360.32C2532.71 360.32 2514.45 355.547 2498.95 346.002C2483.46 336.457 2471.56 323.523 2463.26 307.2C2454.96 290.877 2450.81 272.893 2450.81 253.25C2450.81 233.33 2454.96 215.277 2463.26 199.092C2471.56 182.907 2483.46 170.042 2498.95 160.497C2514.45 150.952 2532.71 146.18 2553.73 146.18C2575.04 146.18 2593.37 150.952 2608.72 160.497C2624.08 170.042 2635.9 182.907 2644.2 199.092C2652.5 215.277 2656.65 233.33 2656.65 253.25C2656.65 272.893 2652.5 290.877 2644.2 307.2C2635.9 323.523 2624.08 336.457 2608.72 346.002C2593.37 355.547 2575.04 360.32 2553.73 360.32ZM2553.73 332.1C2569.23 332.1 2582.3 328.503 2592.95 321.31C2603.6 314.117 2611.7 304.502 2617.23 292.467C2622.76 280.432 2625.53 267.36 2625.53 253.25C2625.53 238.863 2622.76 225.722 2617.23 213.825C2611.7 201.928 2603.6 192.383 2592.95 185.19C2582.3 177.997 2569.23 174.4 2553.73 174.4C2538.52 174.4 2525.51 177.997 2514.72 185.19C2503.93 192.383 2495.77 201.928 2490.24 213.825C2484.71 225.722 2481.94 238.863 2481.94 253.25C2481.94 267.36 2484.71 280.432 2490.24 292.467C2495.77 304.502 2503.93 314.117 2514.72 321.31C2525.51 328.503 2538.52 332.1 2553.73 332.1Z" fill="white"/>
<path d="M2553.73 360.32C2532.71 360.32 2514.45 355.547 2498.95 346.002C2483.46 336.457 2471.56 323.523 2463.26 307.2C2454.96 290.877 2450.81 272.893 2450.81 253.25C2450.81 233.33 2454.96 215.277 2463.26 199.092C2471.56 182.907 2483.46 170.042 2498.95 160.497C2514.45 150.952 2532.71 146.18 2553.73 146.18C2575.04 146.18 2593.37 150.952 2608.72 160.497C2624.08 170.042 2635.9 182.907 2644.2 199.092C2652.5 215.277 2656.65 233.33 2656.65 253.25C2656.65 272.893 2652.5 290.877 2644.2 307.2C2635.9 323.523 2624.08 336.457 2608.72 346.002C2593.37 355.547 2575.04 360.32 2553.73 360.32ZM2553.73 332.1C2569.23 332.1 2582.3 328.503 2592.95 321.31C2603.6 314.117 2611.7 304.502 2617.23 292.467C2622.76 280.432 2625.53 267.36 2625.53 253.25C2625.53 238.863 2622.76 225.722 2617.23 213.825C2611.7 201.928 2603.6 192.383 2592.95 185.19C2582.3 177.997 2569.23 174.4 2553.73 174.4C2538.52 174.4 2525.51 177.997 2514.72 185.19C2503.93 192.383 2495.77 201.928 2490.24 213.825C2484.71 225.722 2481.94 238.863 2481.94 253.25C2481.94 267.36 2484.71 280.432 2490.24 292.467C2495.77 304.502 2503.93 314.117 2514.72 321.31C2525.51 328.503 2538.52 332.1 2553.73 332.1Z" fill="#0C98EB" stroke="#0C98EB" stroke-width="16"/>
<path d="M2778.67 360.32C2764.56 360.32 2751.14 356.931 2738.41 350.152C2725.68 343.374 2715.38 333.276 2707.49 319.857C2699.61 306.439 2695.67 289.908 2695.67 270.265V149.5H2726.79V269.435C2726.79 288.248 2732.25 303.396 2743.18 314.877C2754.11 326.359 2768.01 332.1 2784.89 332.1C2796.51 332.1 2807.02 329.402 2816.43 324.007C2825.84 318.612 2833.38 311.212 2839.05 301.805C2844.72 292.398 2847.56 281.47 2847.56 269.02V149.5H2878.68V357H2847.56V324.63C2840.09 334.59 2830.96 343.028 2820.17 349.945C2809.38 356.862 2795.54 360.32 2778.67 360.32Z" fill="white"/>
<path d="M2778.67 360.32C2764.56 360.32 2751.14 356.931 2738.41 350.152C2725.68 343.374 2715.38 333.276 2707.49 319.857C2699.61 306.439 2695.67 289.908 2695.67 270.265V149.5H2726.79V269.435C2726.79 288.248 2732.25 303.396 2743.18 314.877C2754.11 326.359 2768.01 332.1 2784.89 332.1C2796.51 332.1 2807.02 329.402 2816.43 324.007C2825.84 318.612 2833.38 311.212 2839.05 301.805C2844.72 292.398 2847.56 281.47 2847.56 269.02V149.5H2878.68V357H2847.56V324.63C2840.09 334.59 2830.96 343.028 2820.17 349.945C2809.38 356.862 2795.54 360.32 2778.67 360.32Z" fill="#0C98EB" stroke="#0C98EB" stroke-width="16"/>
<path d="M2932.63 439.17V149.5H2963.76V182.7C2971.5 171.357 2981.53 162.434 2993.84 155.932C3006.15 149.431 3020.89 146.18 3038.04 146.18C3058.24 146.18 3075.87 150.952 3090.95 160.497C3106.03 170.042 3117.72 182.907 3126.02 199.092C3134.32 215.277 3138.47 233.33 3138.47 253.25C3138.47 272.893 3134.32 290.877 3126.02 307.2C3117.72 323.523 3106.03 336.457 3090.95 346.002C3075.87 355.547 3058.24 360.32 3038.04 360.32C3020.89 360.32 3006.15 356.931 2993.84 350.152C2981.53 343.374 2971.5 334.452 2963.76 323.385V439.17H2932.63ZM3033.89 332.1C3049.38 332.1 3062.59 328.503 3073.52 321.31C3084.45 314.117 3092.82 304.502 3098.63 292.467C3104.44 280.432 3107.34 267.36 3107.34 253.25C3107.34 238.863 3104.44 225.722 3098.63 213.825C3092.82 201.928 3084.45 192.383 3073.52 185.19C3062.59 177.997 3049.38 174.4 3033.89 174.4C3018.67 174.4 3005.67 177.997 2994.88 185.19C2984.09 192.383 2975.93 201.928 2970.39 213.825C2964.86 225.722 2962.09 238.863 2962.09 253.25C2962.09 267.36 2964.86 280.432 2970.39 292.467C2975.93 304.502 2984.09 314.117 2994.88 321.31C3005.67 328.503 3018.67 332.1 3033.89 332.1Z" fill="white"/>
<path d="M2932.63 439.17V149.5H2963.76V182.7C2971.5 171.357 2981.53 162.434 2993.84 155.932C3006.15 149.431 3020.89 146.18 3038.04 146.18C3058.24 146.18 3075.87 150.952 3090.95 160.497C3106.03 170.042 3117.72 182.907 3126.02 199.092C3134.32 215.277 3138.47 233.33 3138.47 253.25C3138.47 272.893 3134.32 290.877 3126.02 307.2C3117.72 323.523 3106.03 336.457 3090.95 346.002C3075.87 355.547 3058.24 360.32 3038.04 360.32C3020.89 360.32 3006.15 356.931 2993.84 350.152C2981.53 343.374 2971.5 334.452 2963.76 323.385V439.17H2932.63ZM3033.89 332.1C3049.38 332.1 3062.59 328.503 3073.52 321.31C3084.45 314.117 3092.82 304.502 3098.63 292.467C3104.44 280.432 3107.34 267.36 3107.34 253.25C3107.34 238.863 3104.44 225.722 3098.63 213.825C3092.82 201.928 3084.45 192.383 3073.52 185.19C3062.59 177.997 3049.38 174.4 3033.89 174.4C3018.67 174.4 3005.67 177.997 2994.88 185.19C2984.09 192.383 2975.93 201.928 2970.39 213.825C2964.86 225.722 2962.09 238.863 2962.09 253.25C2962.09 267.36 2964.86 280.432 2970.39 292.467C2975.93 304.502 2984.09 314.117 2994.88 321.31C3005.67 328.503 3018.67 332.1 3033.89 332.1Z" fill="#0C98EB" stroke="#0C98EB" stroke-width="16"/>
<path d="M758.03 362.32C737.003 362.32 718.743 357.548 703.25 348.003C687.757 338.458 675.86 325.523 667.56 309.2C659.26 292.877 655.11 274.893 655.11 255.25C655.11 235.33 659.26 217.277 667.56 201.092C675.86 184.907 687.757 172.042 703.25 162.497C718.743 152.952 737.003 148.18 758.03 148.18C779.333 148.18 797.662 152.952 813.017 162.497C828.372 172.042 840.2 184.907 848.5 201.092C856.8 217.277 860.95 235.33 860.95 255.25C860.95 274.893 856.8 292.877 848.5 309.2C840.2 325.523 828.372 338.458 813.017 348.003C797.662 357.548 779.333 362.32 758.03 362.32ZM758.03 334.1C773.523 334.1 786.596 330.503 797.247 323.31C807.899 316.117 815.992 306.502 821.525 294.467C827.058 282.432 829.825 269.36 829.825 255.25C829.825 240.863 827.058 227.722 821.525 215.825C815.992 203.928 807.899 194.383 797.247 187.19C786.596 179.997 773.523 176.4 758.03 176.4C742.813 176.4 729.81 179.997 719.02 187.19C708.23 194.383 700.068 203.928 694.535 215.825C689.002 227.722 686.235 240.863 686.235 255.25C686.235 269.36 689.002 282.432 694.535 294.467C700.068 306.502 708.23 316.117 719.02 323.31C729.81 330.503 742.813 334.1 758.03 334.1Z" fill="white"/>
<path d="M758.03 362.32C737.003 362.32 718.743 357.548 703.25 348.003C687.757 338.458 675.86 325.523 667.56 309.2C659.26 292.877 655.11 274.893 655.11 255.25C655.11 235.33 659.26 217.277 667.56 201.092C675.86 184.907 687.757 172.042 703.25 162.497C718.743 152.952 737.003 148.18 758.03 148.18C779.333 148.18 797.662 152.952 813.017 162.497C828.372 172.042 840.2 184.907 848.5 201.092C856.8 217.277 860.95 235.33 860.95 255.25C860.95 274.893 856.8 292.877 848.5 309.2C840.2 325.523 828.372 338.458 813.017 348.003C797.662 357.548 779.333 362.32 758.03 362.32ZM758.03 334.1C773.523 334.1 786.596 330.503 797.247 323.31C807.899 316.117 815.992 306.502 821.525 294.467C827.058 282.432 829.825 269.36 829.825 255.25C829.825 240.863 827.058 227.722 821.525 215.825C815.992 203.928 807.899 194.383 797.247 187.19C786.596 179.997 773.523 176.4 758.03 176.4C742.813 176.4 729.81 179.997 719.02 187.19C708.23 194.383 700.068 203.928 694.535 215.825C689.002 227.722 686.235 240.863 686.235 255.25C686.235 269.36 689.002 282.432 694.535 294.467C700.068 306.502 708.23 316.117 719.02 323.31C729.81 330.503 742.813 334.1 758.03 334.1Z" fill="white" stroke="white" stroke-width="16"/>
<path d="M902.035 359V151.5H933.16V183.87C940.63 173.91 949.76 165.472 960.55 158.555C971.34 151.638 985.173 148.18 1002.05 148.18C1016.44 148.18 1029.92 151.569 1042.51 158.347C1055.1 165.126 1065.34 175.224 1073.22 188.642C1081.11 202.061 1085.05 218.592 1085.05 238.235V359H1053.92V239.065C1053.92 220.252 1048.53 205.104 1037.74 193.622C1026.95 182.141 1012.98 176.4 995.825 176.4C984.205 176.4 973.692 179.028 964.285 184.285C954.878 189.542 947.339 196.942 941.667 206.487C935.996 216.032 933.16 227.03 933.16 239.48V359H902.035Z" fill="white"/>
<path d="M902.035 359V151.5H933.16V183.87C940.63 173.91 949.76 165.472 960.55 158.555C971.34 151.638 985.173 148.18 1002.05 148.18C1016.44 148.18 1029.92 151.569 1042.51 158.347C1055.1 165.126 1065.34 175.224 1073.22 188.642C1081.11 202.061 1085.05 218.592 1085.05 238.235V359H1053.92V239.065C1053.92 220.252 1048.53 205.104 1037.74 193.622C1026.95 182.141 1012.98 176.4 995.825 176.4C984.205 176.4 973.692 179.028 964.285 184.285C954.878 189.542 947.339 196.942 941.667 206.487C935.996 216.032 933.16 227.03 933.16 239.48V359H902.035Z" fill="white" stroke="white" stroke-width="16"/>
<path d="M1229.05 362.32C1208.03 362.32 1189.63 357.548 1173.86 348.003C1158.09 338.458 1145.85 325.523 1137.13 309.2C1128.42 292.877 1124.06 274.893 1124.06 255.25C1124.06 235.33 1128.21 217.277 1136.51 201.092C1144.81 184.907 1156.71 172.042 1172.2 162.497C1187.69 152.952 1205.95 148.18 1226.98 148.18C1248.28 148.18 1266.61 152.952 1281.97 162.497C1297.32 172.042 1309.15 184.907 1317.45 201.092C1325.75 217.277 1329.9 235.33 1329.9 255.25V267.7H1156.01C1157.67 279.873 1161.62 291.009 1167.84 301.107C1174.07 311.206 1182.44 319.229 1192.95 325.177C1203.46 331.126 1215.64 334.1 1229.47 334.1C1244.13 334.1 1256.44 330.849 1266.4 324.348C1276.36 317.846 1284.11 309.477 1289.64 299.24H1323.67C1316.48 317.777 1305.07 332.924 1289.44 344.682C1273.81 356.441 1253.68 362.32 1229.05 362.32ZM1156.43 238.65H1297.53C1294.76 220.943 1287.29 206.142 1275.12 194.245C1262.95 182.348 1246.9 176.4 1226.98 176.4C1207.06 176.4 1191.08 182.348 1179.05 194.245C1167.01 206.142 1159.47 220.943 1156.43 238.65Z" fill="white"/>
<path d="M1229.05 362.32C1208.03 362.32 1189.63 357.548 1173.86 348.003C1158.09 338.458 1145.85 325.523 1137.13 309.2C1128.42 292.877 1124.06 274.893 1124.06 255.25C1124.06 235.33 1128.21 217.277 1136.51 201.092C1144.81 184.907 1156.71 172.042 1172.2 162.497C1187.69 152.952 1205.95 148.18 1226.98 148.18C1248.28 148.18 1266.61 152.952 1281.97 162.497C1297.32 172.042 1309.15 184.907 1317.45 201.092C1325.75 217.277 1329.9 235.33 1329.9 255.25V267.7H1156.01C1157.67 279.873 1161.62 291.009 1167.84 301.107C1174.07 311.206 1182.44 319.229 1192.95 325.177C1203.46 331.126 1215.64 334.1 1229.47 334.1C1244.13 334.1 1256.44 330.849 1266.4 324.348C1276.36 317.846 1284.11 309.477 1289.64 299.24H1323.67C1316.48 317.777 1305.07 332.924 1289.44 344.682C1273.81 356.441 1253.68 362.32 1229.05 362.32ZM1156.43 238.65H1297.53C1294.76 220.943 1287.29 206.142 1275.12 194.245C1262.95 182.348 1246.9 176.4 1226.98 176.4C1207.06 176.4 1191.08 182.348 1179.05 194.245C1167.01 206.142 1159.47 220.943 1156.43 238.65Z" fill="white" stroke="white" stroke-width="16"/>
<path d="M1390.49 359V178.89H1348.16V151.5H1390.49V77.215H1421.61V151.5H1469.34V178.89H1421.61V359H1390.49Z" fill="white"/>
<path d="M1390.49 359V178.89H1348.16V151.5H1390.49V77.215H1421.61V151.5H1469.34V178.89H1421.61V359H1390.49Z" fill="white" stroke="white" stroke-width="16"/>
<path d="M1586.78 362.32C1566.59 362.32 1548.95 357.548 1533.87 348.003C1518.79 338.458 1507.1 325.523 1498.8 309.2C1490.5 292.877 1486.35 274.893 1486.35 255.25C1486.35 235.33 1490.5 217.277 1498.8 201.092C1507.1 184.907 1518.79 172.042 1533.87 162.497C1548.95 152.952 1566.59 148.18 1586.78 148.18C1603.94 148.18 1618.67 151.5 1630.98 158.14C1643.29 164.78 1653.32 173.772 1661.07 185.115V151.5H1692.19V359H1661.07V325.8C1653.32 336.867 1643.29 345.72 1630.98 352.36C1618.67 359 1603.94 362.32 1586.78 362.32ZM1590.93 334.1C1606.43 334.1 1619.5 330.503 1630.15 323.31C1640.8 316.117 1648.9 306.502 1654.43 294.467C1659.96 282.432 1662.73 269.36 1662.73 255.25C1662.73 240.863 1659.96 227.722 1654.43 215.825C1648.9 203.928 1640.8 194.383 1630.15 187.19C1619.5 179.997 1606.43 176.4 1590.93 176.4C1575.72 176.4 1562.58 179.997 1551.51 187.19C1540.44 194.383 1532.01 203.928 1526.2 215.825C1520.39 227.722 1517.48 240.863 1517.48 255.25C1517.48 269.36 1520.39 282.432 1526.2 294.467C1532.01 306.502 1540.44 316.117 1551.51 323.31C1562.58 330.503 1575.72 334.1 1590.93 334.1Z" fill="white"/>
<path d="M1586.78 362.32C1566.59 362.32 1548.95 357.548 1533.87 348.003C1518.79 338.458 1507.1 325.523 1498.8 309.2C1490.5 292.877 1486.35 274.893 1486.35 255.25C1486.35 235.33 1490.5 217.277 1498.8 201.092C1507.1 184.907 1518.79 172.042 1533.87 162.497C1548.95 152.952 1566.59 148.18 1586.78 148.18C1603.94 148.18 1618.67 151.5 1630.98 158.14C1643.29 164.78 1653.32 173.772 1661.07 185.115V151.5H1692.19V359H1661.07V325.8C1653.32 336.867 1643.29 345.72 1630.98 352.36C1618.67 359 1603.94 362.32 1586.78 362.32ZM1590.93 334.1C1606.43 334.1 1619.5 330.503 1630.15 323.31C1640.8 316.117 1648.9 306.502 1654.43 294.467C1659.96 282.432 1662.73 269.36 1662.73 255.25C1662.73 240.863 1659.96 227.722 1654.43 215.825C1648.9 203.928 1640.8 194.383 1630.15 187.19C1619.5 179.997 1606.43 176.4 1590.93 176.4C1575.72 176.4 1562.58 179.997 1551.51 187.19C1540.44 194.383 1532.01 203.928 1526.2 215.825C1520.39 227.722 1517.48 240.863 1517.48 255.25C1517.48 269.36 1520.39 282.432 1526.2 294.467C1532.01 306.502 1540.44 316.117 1551.51 323.31C1562.58 330.503 1575.72 334.1 1590.93 334.1Z" fill="white" stroke="white" stroke-width="16"/>
<path d="M1851.55 362.32C1834.4 362.32 1819.67 359 1807.36 352.36C1795.05 345.72 1785.02 336.867 1777.27 325.8V359H1746.15V68.5H1777.27V185.115C1785.02 173.772 1795.05 164.78 1807.36 158.14C1819.67 151.5 1834.4 148.18 1851.55 148.18C1871.75 148.18 1889.39 152.952 1904.47 162.497C1919.55 172.042 1931.24 184.907 1939.54 201.092C1947.84 217.277 1951.98 235.33 1951.98 255.25C1951.98 274.893 1947.84 292.877 1939.54 309.2C1931.24 325.523 1919.55 338.458 1904.47 348.003C1889.39 357.548 1871.75 362.32 1851.55 362.32ZM1847.41 334.1C1862.9 334.1 1876.11 330.503 1887.04 323.31C1897.97 316.117 1906.34 306.502 1912.15 294.467C1917.96 282.432 1920.86 269.36 1920.86 255.25C1920.86 240.863 1917.96 227.722 1912.15 215.825C1906.34 203.928 1897.97 194.383 1887.04 187.19C1876.11 179.997 1862.9 176.4 1847.41 176.4C1832.19 176.4 1819.19 179.997 1808.4 187.19C1797.61 194.383 1789.44 203.928 1783.91 215.825C1778.38 227.722 1775.61 240.863 1775.61 255.25C1775.61 269.36 1778.38 282.432 1783.91 294.467C1789.44 306.502 1797.61 316.117 1808.4 323.31C1819.19 330.503 1832.19 334.1 1847.41 334.1Z" fill="white"/>
<path d="M1851.55 362.32C1834.4 362.32 1819.67 359 1807.36 352.36C1795.05 345.72 1785.02 336.867 1777.27 325.8V359H1746.15V68.5H1777.27V185.115C1785.02 173.772 1795.05 164.78 1807.36 158.14C1819.67 151.5 1834.4 148.18 1851.55 148.18C1871.75 148.18 1889.39 152.952 1904.47 162.497C1919.55 172.042 1931.24 184.907 1939.54 201.092C1947.84 217.277 1951.98 235.33 1951.98 255.25C1951.98 274.893 1947.84 292.877 1939.54 309.2C1931.24 325.523 1919.55 338.458 1904.47 348.003C1889.39 357.548 1871.75 362.32 1851.55 362.32ZM1847.41 334.1C1862.9 334.1 1876.11 330.503 1887.04 323.31C1897.97 316.117 1906.34 306.502 1912.15 294.467C1917.96 282.432 1920.86 269.36 1920.86 255.25C1920.86 240.863 1917.96 227.722 1912.15 215.825C1906.34 203.928 1897.97 194.383 1887.04 187.19C1876.11 179.997 1862.9 176.4 1847.41 176.4C1832.19 176.4 1819.19 179.997 1808.4 187.19C1797.61 194.383 1789.44 203.928 1783.91 215.825C1778.38 227.722 1775.61 240.863 1775.61 255.25C1775.61 269.36 1778.38 282.432 1783.91 294.467C1789.44 306.502 1797.61 316.117 1808.4 323.31C1819.19 330.503 1832.19 334.1 1847.41 334.1Z" fill="white" stroke="white" stroke-width="16"/>
<path d="M1988.09 359V316.67H2028.34V359H1988.09Z" fill="white"/>
<path d="M1988.09 359V316.67H2028.34V359H1988.09Z" fill="white" stroke="white" stroke-width="16"/>
<g clip-path="url(#clip0_1_15)">
<mask id="mask0_1_15" style="mask-type:luminance" maskUnits="userSpaceOnUse" x="0" y="0" width="512" height="512">
<path d="M512 0H0V512H512V0Z" fill="white"/>
</mask>
<g mask="url(#mask0_1_15)">
<g filter="url(#filter0_dii_1_15)">
<path d="M512 256C512 114.615 397.385 0 256 0C114.615 0 0 114.615 0 256C0 397.385 114.615 512 256 512C397.385 512 512 397.385 512 256Z" fill="url(#paint0_radial_1_15)"/>
</g>
<g filter="url(#filter1_di_1_15)">
<path fill-rule="evenodd" clip-rule="evenodd" d="M139.333 396H372.667C385.553 396 396 404.06 396 414C396 423.94 385.553 432 372.667 432H139.333C126.447 432 116 423.94 116 414C116 404.06 126.447 396 139.333 396Z" fill="white"/>
</g>
<g filter="url(#filter2_diii_1_15)">
<path d="M256 356C333.32 356 396 294.215 396 218C396 141.785 333.32 80 256 80C178.68 80 116 141.785 116 218C116 294.215 178.68 356 256 356Z" fill="white"/>
</g>
</g>
</g>
<defs>
<filter id="filter0_dii_1_15" x="-4" y="-20" width="520" height="540" filterUnits="userSpaceOnUse" color-interpolation-filters="sRGB">
<feFlood flood-opacity="0" result="BackgroundImageFix"/>
<feColorMatrix in="SourceAlpha" type="matrix" values="0 0 0 0 0 0 0 0 0 0 0 0 0 0 0 0 0 0 127 0" result="hardAlpha"/>
<feOffset dy="4"/>
<feGaussianBlur stdDeviation="2"/>
<feComposite in2="hardAlpha" operator="out"/>
<feColorMatrix type="matrix" values="0 0 0 0 0 0 0 0 0 0 0 0 0 0 0 0 0 0 0.1 0"/>
<feBlend mode="normal" in2="BackgroundImageFix" result="effect1_dropShadow_1_15"/>
<feBlend mode="normal" in="SourceGraphic" in2="effect1_dropShadow_1_15" result="shape"/>
<feColorMatrix in="SourceAlpha" type="matrix" values="0 0 0 0 0 0 0 0 0 0 0 0 0 0 0 0 0 0 127 0" result="hardAlpha"/>
<feOffset dy="-20"/>
<feGaussianBlur stdDeviation="12"/>
<feComposite in2="hardAlpha" operator="arithmetic" k2="-1" k3="1"/>
<feColorMatrix type="matrix" values="0 0 0 0 1 0 0 0 0 1 0 0 0 0 1 0 0 0 0.08 0"/>
<feBlend mode="normal" in2="shape" result="effect2_innerShadow_1_15"/>
<feColorMatrix in="SourceAlpha" type="matrix" values="0 0 0 0 0 0 0 0 0 0 0 0 0 0 0 0 0 0 127 0" result="hardAlpha"/>
<feOffset dy="4"/>
<feGaussianBlur stdDeviation="12"/>
<feComposite in2="hardAlpha" operator="arithmetic" k2="-1" k3="1"/>
<feColorMatrix type="matrix" values="0 0 0 0 0.0470588 0 0 0 0 0.596078 0 0 0 0 0.921569 0 0 0 0.25 0"/>
<feBlend mode="normal" in2="effect2_innerShadow_1_15" result="effect3_innerShadow_1_15"/>
</filter>
<filter id="filter1_di_1_15" x="112" y="392" width="288" height="48" filterUnits="userSpaceOnUse" color-interpolation-filters="sRGB">
<feFlood flood-opacity="0" result="BackgroundImageFix"/>
<feColorMatrix in="SourceAlpha" type="matrix" values="0 0 0 0 0 0 0 0 0 0 0 0 0 0 0 0 0 0 127 0" result="hardAlpha"/>
<feOffset dy="4"/>
<feGaussianBlur stdDeviation="2"/>
<feComposite in2="hardAlpha" operator="out"/>
<feColorMatrix type="matrix" values="0 0 0 0 0 0 0 0 0 0 0 0 0 0 0 0 0 0 0.25 0"/>
<feBlend mode="normal" in2="BackgroundImageFix" result="effect1_dropShadow_1_15"/>
<feBlend mode="normal" in="SourceGraphic" in2="effect1_dropShadow_1_15" result="shape"/>
<feColorMatrix in="SourceAlpha" type="matrix" values="0 0 0 0 0 0 0 0 0 0 0 0 0 0 0 0 0 0 127 0" result="hardAlpha"/>
<feOffset dy="-4"/>
<feGaussianBlur stdDeviation="2"/>
<feComposite in2="hardAlpha" operator="arithmetic" k2="-1" k3="1"/>
<feColorMatrix type="matrix" values="0 0 0 0 0.00392157 0 0 0 0 0.745098 0 0 0 0 0.952941 0 0 0 0.16 0"/>
<feBlend mode="normal" in2="shape" result="effect2_innerShadow_1_15"/>
</filter>
<filter id="filter2_diii_1_15" x="100" y="72" width="312" height="316" filterUnits="userSpaceOnUse" color-interpolation-filters="sRGB">
<feFlood flood-opacity="0" result="BackgroundImageFix"/>
<feColorMatrix in="SourceAlpha" type="matrix" values="0 0 0 0 0 0 0 0 0 0 0 0 0 0 0 0 0 0 127 0" result="hardAlpha"/>
<feOffset dy="16"/>
<feGaussianBlur stdDeviation="8"/>
<feComposite in2="hardAlpha" operator="out"/>
<feColorMatrix type="matrix" values="0 0 0 0 0 0 0 0 0 0 0 0 0 0 0 0 0 0 0.1 0"/>
<feBlend mode="normal" in2="BackgroundImageFix" result="effect1_dropShadow_1_15"/>
<feBlend mode="normal" in="SourceGraphic" in2="effect1_dropShadow_1_15" result="shape"/>
<feColorMatrix in="SourceAlpha" type="matrix" values="0 0 0 0 0 0 0 0 0 0 0 0 0 0 0 0 0 0 127 0" result="hardAlpha"/>
<feOffset dy="-8"/>
<feGaussianBlur stdDeviation="4"/>
<feComposite in2="hardAlpha" operator="arithmetic" k2="-1" k3="1"/>
<feColorMatrix type="matrix" values="0 0 0 0 0.00392157 0 0 0 0 0.745098 0 0 0 0 0.952941 0 0 0 0.16 0"/>
<feBlend mode="normal" in2="shape" result="effect2_innerShadow_1_15"/>
<feColorMatrix in="SourceAlpha" type="matrix" values="0 0 0 0 0 0 0 0 0 0 0 0 0 0 0 0 0 0 127 0" result="hardAlpha"/>
<feOffset dx="-2"/>
<feGaussianBlur stdDeviation="8"/>
<feComposite in2="hardAlpha" operator="arithmetic" k2="-1" k3="1"/>
<feColorMatrix type="matrix" values="0 0 0 0 0.0470588 0 0 0 0 0.596078 0 0 0 0 0.921569 0 0 0 0.16 0"/>
<feBlend mode="normal" in2="effect2_innerShadow_1_15" result="effect3_innerShadow_1_15"/>
<feColorMatrix in="SourceAlpha" type="matrix" values="0 0 0 0 0 0 0 0 0 0 0 0 0 0 0 0 0 0 127 0" result="hardAlpha"/>
<feOffset dx="2"/>
<feGaussianBlur stdDeviation="8"/>
<feComposite in2="hardAlpha" operator="arithmetic" k2="-1" k3="1"/>
<feColorMatrix type="matrix" values="0 0 0 0 0.0470588 0 0 0 0 0.596078 0 0 0 0 0.921569 0 0 0 0.16 0"/>
<feBlend mode="normal" in2="effect3_innerShadow_1_15" result="effect4_innerShadow_1_15"/>
</filter>
<radialGradient id="paint0_radial_1_15" cx="0" cy="0" r="1" gradientUnits="userSpaceOnUse" gradientTransform="translate(256) rotate(90) scale(512 716.832)">
<stop stop-color="#00C7FF"/>
<stop offset="1" stop-color="#0C98EB"/>
</radialGradient>
<clipPath id="clip0_1_15">
<rect width="512" height="512" fill="white"/>
</clipPath>
</defs>
</svg>
