<svg width="2500px" height="391px" viewBox="0 0 2500 391" version="1.1" xmlns="http://www.w3.org/2000/svg" xmlns:xlink="http://www.w3.org/1999/xlink">
    <defs>
        <path d="M107.9,296.31 C81.8933333,296.31 60.7283333,290.7075 44.405,279.5025 C28.0816667,268.2975 17.015,253.703333 11.205,235.72 L45.65,235.72 C49.8,245.956667 56.9933333,253.910833 67.23,259.5825 C77.4666667,265.254167 90.47,268.09 106.24,268.09 C130.033333,268.09 147.394167,262.4875 158.3225,251.2825 C169.250833,240.0775 174.715,223.823333 174.715,202.52 L174.715,173.885 C166.968333,184.951667 156.939167,193.874167 144.6275,200.6525 C132.315833,207.430833 117.583333,210.82 100.43,210.82 C80.2333333,210.82 62.5958333,206.185833 47.5175,196.9175 C32.4391667,187.649167 20.75,174.991667 12.45,158.945 C4.15,142.898333 0,125.053333 0,105.41 C0,85.49 4.15,67.5758333 12.45,51.6675 C20.75,35.7591667 32.4391667,23.1708333 47.5175,13.9025 C62.5958333,4.63416667 80.2333333,0 100.43,0 C117.583333,0 132.315833,3.25083333 144.6275,9.7525 C156.939167,16.2541667 166.968333,25.1766667 174.715,36.52 L174.715,3.32 L205.84,3.32 L205.84,204.595 C205.84,234.198333 197.3325,256.885 180.3175,272.655 C163.3025,288.425 139.163333,296.31 107.9,296.31 Z M104.58,182.6 C119.796667,182.6 132.730833,179.141667 143.3825,172.225 C154.034167,165.308333 162.195833,155.970833 167.8675,144.2125 C173.539167,132.454167 176.375,119.52 176.375,105.41 C176.375,91.0233333 173.539167,78.02 167.8675,66.4 C162.195833,54.78 154.034167,45.5116667 143.3825,38.595 C132.730833,31.6783333 119.796667,28.22 104.58,28.22 C89.3633333,28.22 76.2216667,31.6783333 65.155,38.595 C54.0883333,45.5116667 45.65,54.78 39.84,66.4 C34.03,78.02 31.125,91.0233333 31.125,105.41 C31.125,119.52 34.03,132.454167 39.84,144.2125 C45.65,155.970833 54.0883333,165.308333 65.155,172.225 C76.2216667,179.141667 89.3633333,182.6 104.58,182.6 Z" id="path-i2ynkr4iqn-1"></path>
        <path d="M259.79,210.82 L259.79,3.32 L290.915,3.32 L290.915,54.365 C292.021667,50.7683333 294.165833,45.9958333 297.3475,40.0475 C300.529167,34.0991667 305.163333,28.0816667 311.25,21.995 C317.336667,15.9083333 325.014167,10.7208333 334.2825,6.4325 C343.550833,2.14416667 354.548333,0 367.275,0 L369.35,0 L369.35,31.125 L365.615,31.125 C350.121667,31.125 336.7725,35.3441667 325.5675,43.7825 C314.3625,52.2208333 305.785833,63.1491667 299.8375,76.5675 C293.889167,89.9858333 290.915,104.303333 290.915,119.52 L290.915,210.82 L259.79,210.82 Z" id="path-i2ynkr4iqn-2"></path>
        <path d="M487.625,214.14 C466.598333,214.14 448.338333,209.3675 432.845,199.8225 C417.351667,190.2775 405.455,177.343333 397.155,161.02 C388.855,144.696667 384.705,126.713333 384.705,107.07 C384.705,87.15 388.855,69.0975 397.155,52.9125 C405.455,36.7275 417.351667,23.8625 432.845,14.3175 C448.338333,4.7725 466.598333,0 487.625,0 C508.928333,0 527.2575,4.7725 542.6125,14.3175 C557.9675,23.8625 569.795,36.7275 578.095,52.9125 C586.395,69.0975 590.545,87.15 590.545,107.07 C590.545,126.713333 586.395,144.696667 578.095,161.02 C569.795,177.343333 557.9675,190.2775 542.6125,199.8225 C527.2575,209.3675 508.928333,214.14 487.625,214.14 Z M487.625,185.92 C503.118333,185.92 516.190833,182.323333 526.8425,175.13 C537.494167,167.936667 545.586667,158.3225 551.12,146.2875 C556.653333,134.2525 559.42,121.18 559.42,107.07 C559.42,92.6833333 556.653333,79.5416667 551.12,67.645 C545.586667,55.7483333 537.494167,46.2033333 526.8425,39.01 C516.190833,31.8166667 503.118333,28.22 487.625,28.22 C472.408333,28.22 459.405,31.8166667 448.615,39.01 C437.825,46.2033333 429.663333,55.7483333 424.13,67.645 C418.596667,79.5416667 415.83,92.6833333 415.83,107.07 C415.83,121.18 418.596667,134.2525 424.13,146.2875 C429.663333,158.3225 437.825,167.936667 448.615,175.13 C459.405,182.323333 472.408333,185.92 487.625,185.92 Z" id="path-i2ynkr4iqn-3"></path>
        <path d="M712.555,214.14 C698.445,214.14 685.026667,210.750833 672.3,203.9725 C659.573333,197.194167 649.2675,187.095833 641.3825,173.6775 C633.4975,160.259167 629.555,143.728333 629.555,124.085 L629.555,3.32 L660.68,3.32 L660.68,123.255 C660.68,142.068333 666.144167,157.215833 677.0725,168.6975 C688.000833,180.179167 701.903333,185.92 718.78,185.92 C730.4,185.92 740.913333,183.2225 750.32,177.8275 C759.726667,172.4325 767.265833,165.031667 772.9375,155.625 C778.609167,146.218333 781.445,135.29 781.445,122.84 L781.445,3.32 L812.57,3.32 L812.57,210.82 L781.445,210.82 L781.445,178.45 C773.975,188.41 764.845,196.848333 754.055,203.765 C743.265,210.681667 729.431667,214.14 712.555,214.14 Z" id="path-i2ynkr4iqn-4"></path>
        <path d="M866.52,292.99 L866.52,3.32 L897.645,3.32 L897.645,36.52 C905.391667,25.1766667 915.420833,16.2541667 927.7325,9.7525 C940.044167,3.25083333 954.776667,0 971.93,0 C992.126667,0 1009.76417,4.7725 1024.8425,14.3175 C1039.92083,23.8625 1051.61,36.7275 1059.91,52.9125 C1068.21,69.0975 1072.36,87.15 1072.36,107.07 C1072.36,126.713333 1068.21,144.696667 1059.91,161.02 C1051.61,177.343333 1039.92083,190.2775 1024.8425,199.8225 C1009.76417,209.3675 992.126667,214.14 971.93,214.14 C954.776667,214.14 940.044167,210.750833 927.7325,203.9725 C915.420833,197.194167 905.391667,188.271667 897.645,177.205 L897.645,292.99 L866.52,292.99 Z M967.78,185.92 C983.273333,185.92 996.484167,182.323333 1007.4125,175.13 C1018.34083,167.936667 1026.71,158.3225 1032.52,146.2875 C1038.33,134.2525 1041.235,121.18 1041.235,107.07 C1041.235,92.6833333 1038.33,79.5416667 1032.52,67.645 C1026.71,55.7483333 1018.34083,46.2033333 1007.4125,39.01 C996.484167,31.8166667 983.273333,28.22 967.78,28.22 C952.563333,28.22 939.56,31.8166667 928.77,39.01 C917.98,46.2033333 909.818333,55.7483333 904.285,67.645 C898.751667,79.5416667 895.985,92.6833333 895.985,107.07 C895.985,121.18 898.751667,134.2525 904.285,146.2875 C909.818333,158.3225 917.98,167.936667 928.77,175.13 C939.56,182.323333 952.563333,185.92 967.78,185.92 Z" id="path-i2ynkr4iqn-5"></path>
        <path d="M102.92,293.82 C81.8933333,293.82 63.6333333,289.0475 48.14,279.5025 C32.6466667,269.9575 20.75,257.023333 12.45,240.7 C4.15,224.376667 -2.27373675e-13,206.393333 -2.27373675e-13,186.75 C-2.27373675e-13,166.83 4.15,148.7775 12.45,132.5925 C20.75,116.4075 32.6466667,103.5425 48.14,93.9975 C63.6333333,84.4525 81.8933333,79.68 102.92,79.68 C124.223333,79.68 142.5525,84.4525 157.9075,93.9975 C173.2625,103.5425 185.09,116.4075 193.39,132.5925 C201.69,148.7775 205.84,166.83 205.84,186.75 C205.84,206.393333 201.69,224.376667 193.39,240.7 C185.09,257.023333 173.2625,269.9575 157.9075,279.5025 C142.5525,289.0475 124.223333,293.82 102.92,293.82 Z M102.92,265.6 C118.413333,265.6 131.485833,262.003333 142.1375,254.81 C152.789167,247.616667 160.881667,238.0025 166.415,225.9675 C171.948333,213.9325 174.715,200.86 174.715,186.75 C174.715,172.363333 171.948333,159.221667 166.415,147.325 C160.881667,135.428333 152.789167,125.883333 142.1375,118.69 C131.485833,111.496667 118.413333,107.9 102.92,107.9 C87.7033333,107.9 74.7,111.496667 63.91,118.69 C53.12,125.883333 44.9583333,135.428333 39.425,147.325 C33.8916667,159.221667 31.125,172.363333 31.125,186.75 C31.125,200.86 33.8916667,213.9325 39.425,225.9675 C44.9583333,238.0025 53.12,247.616667 63.91,254.81 C74.7,262.003333 87.7033333,265.6 102.92,265.6 Z" id="path-i2ynkr4iqn-6"></path>
        <path d="M246.925,290.5 L246.925,83 L278.05,83 L278.05,115.37 C285.52,105.41 294.65,96.9716667 305.44,90.055 C316.23,83.1383333 330.063333,79.68 346.94,79.68 C361.326667,79.68 374.814167,83.0691667 387.4025,89.8475 C399.990833,96.6258333 410.2275,106.724167 418.1125,120.1425 C425.9975,133.560833 429.94,150.091667 429.94,169.735 L429.94,290.5 L398.815,290.5 L398.815,170.565 C398.815,151.751667 393.42,136.604167 382.63,125.1225 C371.84,113.640833 357.868333,107.9 340.715,107.9 C329.095,107.9 318.581667,110.528333 309.175,115.785 C299.768333,121.041667 292.229167,128.4425 286.5575,137.9875 C280.885833,147.5325 278.05,158.53 278.05,170.98 L278.05,290.5 L246.925,290.5 Z" id="path-i2ynkr4iqn-7"></path>
        <path d="M573.945,293.82 C552.918333,293.82 534.52,289.0475 518.75,279.5025 C502.98,269.9575 490.7375,257.023333 482.0225,240.7 C473.3075,224.376667 468.95,206.393333 468.95,186.75 C468.95,166.83 473.1,148.7775 481.4,132.5925 C489.7,116.4075 501.596667,103.5425 517.09,93.9975 C532.583333,84.4525 550.843333,79.68 571.87,79.68 C593.173333,79.68 611.5025,84.4525 626.8575,93.9975 C642.2125,103.5425 654.04,116.4075 662.34,132.5925 C670.64,148.7775 674.79,166.83 674.79,186.75 L674.79,199.2 L500.905,199.2 C502.565,211.373333 506.5075,222.509167 512.7325,232.6075 C518.9575,242.705833 527.326667,250.729167 537.84,256.6775 C548.353333,262.625833 560.526667,265.6 574.36,265.6 C589.023333,265.6 601.335,262.349167 611.295,255.8475 C621.255,249.345833 629.001667,240.976667 634.535,230.74 L668.565,230.74 C661.371667,249.276667 649.959167,264.424167 634.3275,276.1825 C618.695833,287.940833 598.568333,293.82 573.945,293.82 Z M501.32,170.15 L642.42,170.15 C639.653333,152.443333 632.183333,137.641667 620.01,125.745 C607.836667,113.848333 591.79,107.9 571.87,107.9 C551.95,107.9 535.9725,113.848333 523.9375,125.745 C511.9025,137.641667 504.363333,152.443333 501.32,170.15 Z" id="path-i2ynkr4iqn-8"></path>
        <polygon id="path-i2ynkr4iqn-9" points="735.38 290.5 735.38 110.39 693.05 110.39 693.05 83 735.38 83 735.38 8.715 766.505 8.715 766.505 83 814.23 83 814.23 110.39 766.505 110.39 766.505 290.5"></polygon>
        <path d="M931.675,293.82 C911.478333,293.82 893.840833,289.0475 878.7625,279.5025 C863.684167,269.9575 851.995,257.023333 843.695,240.7 C835.395,224.376667 831.245,206.393333 831.245,186.75 C831.245,166.83 835.395,148.7775 843.695,132.5925 C851.995,116.4075 863.684167,103.5425 878.7625,93.9975 C893.840833,84.4525 911.478333,79.68 931.675,79.68 C948.828333,79.68 963.560833,83 975.8725,89.64 C988.184167,96.28 998.213333,105.271667 1005.96,116.615 L1005.96,83 L1037.085,83 L1037.085,290.5 L1005.96,290.5 L1005.96,257.3 C998.213333,268.366667 988.184167,277.22 975.8725,283.86 C963.560833,290.5 948.828333,293.82 931.675,293.82 Z M935.825,265.6 C951.318333,265.6 964.390833,262.003333 975.0425,254.81 C985.694167,247.616667 993.786667,238.0025 999.32,225.9675 C1004.85333,213.9325 1007.62,200.86 1007.62,186.75 C1007.62,172.363333 1004.85333,159.221667 999.32,147.325 C993.786667,135.428333 985.694167,125.883333 975.0425,118.69 C964.390833,111.496667 951.318333,107.9 935.825,107.9 C920.608333,107.9 907.466667,111.496667 896.4,118.69 C885.333333,125.883333 876.895,135.428333 871.085,147.325 C865.275,159.221667 862.37,172.363333 862.37,186.75 C862.37,200.86 865.275,213.9325 871.085,225.9675 C876.895,238.0025 885.333333,247.616667 896.4,254.81 C907.466667,262.003333 920.608333,265.6 935.825,265.6 Z" id="path-i2ynkr4iqn-10"></path>
        <path d="M1196.445,293.82 C1179.29167,293.82 1164.55917,290.5 1152.2475,283.86 C1139.93583,277.22 1129.90667,268.366667 1122.16,257.3 L1122.16,290.5 L1091.035,290.5 L1091.035,0 L1122.16,0 L1122.16,116.615 C1129.90667,105.271667 1139.93583,96.28 1152.2475,89.64 C1164.55917,83 1179.29167,79.68 1196.445,79.68 C1216.64167,79.68 1234.27917,84.4525 1249.3575,93.9975 C1264.43583,103.5425 1276.125,116.4075 1284.425,132.5925 C1292.725,148.7775 1296.875,166.83 1296.875,186.75 C1296.875,206.393333 1292.725,224.376667 1284.425,240.7 C1276.125,257.023333 1264.43583,269.9575 1249.3575,279.5025 C1234.27917,289.0475 1216.64167,293.82 1196.445,293.82 Z M1192.295,265.6 C1207.78833,265.6 1220.99917,262.003333 1231.9275,254.81 C1242.85583,247.616667 1251.225,238.0025 1257.035,225.9675 C1262.845,213.9325 1265.75,200.86 1265.75,186.75 C1265.75,172.363333 1262.845,159.221667 1257.035,147.325 C1251.225,135.428333 1242.85583,125.883333 1231.9275,118.69 C1220.99917,111.496667 1207.78833,107.9 1192.295,107.9 C1177.07833,107.9 1164.075,111.496667 1153.285,118.69 C1142.495,125.883333 1134.33333,135.428333 1128.8,147.325 C1123.26667,159.221667 1120.5,172.363333 1120.5,186.75 C1120.5,200.86 1123.26667,213.9325 1128.8,225.9675 C1134.33333,238.0025 1142.495,247.616667 1153.285,254.81 C1164.075,262.003333 1177.07833,265.6 1192.295,265.6 Z" id="path-i2ynkr4iqn-11"></path>
        <polygon id="path-i2ynkr4iqn-12" points="1332.98 290.5 1332.98 248.17 1373.235 248.17 1373.235 290.5"></polygon>
    </defs>
    <g id="Page-1" stroke="none" stroke-width="1" fill="none" fill-rule="evenodd">
        <g id="font" transform="translate(8.110000, 8.500000)" fill-rule="nonzero">
            <g id="group" transform="translate(1411.000000, 77.680000)">
                <g id="形状">
                    <use fill="#0f172a" xlink:href="#path-i2ynkr4iqn-1"></use>
                    <use stroke="#0EA5E9" stroke-width="16" fill="#0EA5E9" xlink:href="#path-i2ynkr4iqn-1"></use>
                </g>
                <g id="路径">
                    <use fill="#0f172a" xlink:href="#path-i2ynkr4iqn-2"></use>
                    <use stroke="#0EA5E9" stroke-width="16" fill="#0EA5E9" xlink:href="#path-i2ynkr4iqn-2"></use>
                </g>
                <g id="形状">
                    <use fill="#0f172a" xlink:href="#path-i2ynkr4iqn-3"></use>
                    <use stroke="#0EA5E9" stroke-width="16" fill="#0EA5E9" xlink:href="#path-i2ynkr4iqn-3"></use>
                </g>
                <g id="路径">
                    <use fill="#0f172a" xlink:href="#path-i2ynkr4iqn-4"></use>
                    <use stroke="#0EA5E9" stroke-width="16" fill="#0EA5E9" xlink:href="#path-i2ynkr4iqn-4"></use>
                </g>
                <g id="形状">
                    <use fill="#0f172a" xlink:href="#path-i2ynkr4iqn-5"></use>
                    <use stroke="#0EA5E9" stroke-width="16" fill="#0EA5E9" xlink:href="#path-i2ynkr4iqn-5"></use>
                </g>
            </g>
            <g id="onetab.light" fill="#0f172a">
                <g id="形状">
                    <use xlink:href="#path-i2ynkr4iqn-6"></use>
                    <use stroke="#0f172a" stroke-width="16" xlink:href="#path-i2ynkr4iqn-6"></use>
                </g>
                <g id="路径">
                    <use xlink:href="#path-i2ynkr4iqn-7"></use>
                    <use stroke="#0f172a" stroke-width="16" xlink:href="#path-i2ynkr4iqn-7"></use>
                </g>
                <g id="形状">
                    <use xlink:href="#path-i2ynkr4iqn-8"></use>
                    <use stroke="#0f172a" stroke-width="16" xlink:href="#path-i2ynkr4iqn-8"></use>
                </g>
                <g id="路径">
                    <use xlink:href="#path-i2ynkr4iqn-9"></use>
                    <use stroke="#0f172a" stroke-width="16" xlink:href="#path-i2ynkr4iqn-9"></use>
                </g>
                <g id="形状">
                    <use xlink:href="#path-i2ynkr4iqn-10"></use>
                    <use stroke="#0f172a" stroke-width="16" xlink:href="#path-i2ynkr4iqn-10"></use>
                </g>
                <g id="形状">
                    <use xlink:href="#path-i2ynkr4iqn-11"></use>
                    <use stroke="#0f172a" stroke-width="16" xlink:href="#path-i2ynkr4iqn-11"></use>
                </g>
                <g id="路径">
                    <use xlink:href="#path-i2ynkr4iqn-12"></use>
                    <use stroke="#0f172a" stroke-width="16" xlink:href="#path-i2ynkr4iqn-12"></use>
                </g>
            </g>
        </g>
    </g>
</svg>