
<svg xmlns="http://www.w3.org/2000/svg" xmlns:xlink="http://www.w3.org/1999/xlink" width="1400" height="1024" viewBox="0 0 1400 1024">
  <defs>
    <polygon id="grid_octocat-a" points="0 0 1400 0 1400 1024 0 1024"/>
    <radialGradient id="grid_octocat-b" cx="50%" cy="48.767%" r="33.318%" fx="50%" fy="48.767%" gradientTransform="matrix(0 -1 1.59473 0 -.278 .988)">
      <stop offset="0%" stop-color="#0ea5e9"/>
      <stop offset="100%" stop-color="#075985" stop-opacity="0"/>
    </radialGradient>
    <linearGradient id="grid_octocat-d" x1="100%" x2=".492%" y1="34.618%" y2="65.382%">
      <stop offset="0%" stop-color="#075985" stop-opacity="0"/>
      <stop offset="98.248%" stop-color="#0ea5e9"/>
      <stop offset="100%" stop-color="#f0f9ff"/>
    </linearGradient>
    <filter id="grid_octocat-e" width="110.5%" height="119%" x="-5.3%" y="-9.5%" filterUnits="objectBoundingBox">
      <feGaussianBlur in="SourceGraphic" stdDeviation="4"/>
    </filter>
    <filter id="grid_octocat-f" width="110.5%" height="119%" x="-5.3%" y="-9.5%" filterUnits="objectBoundingBox">
      <feGaussianBlur in="SourceGraphic" stdDeviation="4"/>
    </filter>
    <linearGradient id="grid_octocat-g" x1="100%" x2=".492%" y1="45.101%" y2="54.899%">
      <stop offset="0%" stop-color="#f0f9ff"/>
      <stop offset="1.752%" stop-color="#0ea5e9"/>
      <stop offset="100%" stop-color="#075985" stop-opacity="0"/>
    </linearGradient>
    <filter id="grid_octocat-h" width="114.4%" height="146%" x="-7.2%" y="-23%" filterUnits="objectBoundingBox">
      <feGaussianBlur in="SourceGraphic" stdDeviation="4"/>
    </filter>
    <linearGradient id="grid_octocat-i" x1="100%" x2="0%" y1="52.989%" y2="47.011%">
      <stop offset="0%" stop-color="#f0f9ff"/>
      <stop offset="1.752%" stop-color="#0ea5e9"/>
      <stop offset="100%" stop-color="#075985" stop-opacity="0"/>
    </linearGradient>
    <filter id="grid_octocat-j" width="107.1%" height="129.1%" x="-3.6%" y="-14.6%" filterUnits="objectBoundingBox">
      <feGaussianBlur in="SourceGraphic" stdDeviation="4"/>
    </filter>
    <linearGradient id="grid_octocat-k" x1="100%" x2="0%" y1="56.171%" y2="43.829%">
      <stop offset="0%" stop-color="#f0f9ff"/>
      <stop offset="1.752%" stop-color="#0ea5e9"/>
      <stop offset="100%" stop-color="#075985" stop-opacity="0"/>
    </linearGradient>
    <filter id="grid_octocat-l" width="109.7%" height="127.5%" x="-4.8%" y="-13.8%" filterUnits="objectBoundingBox">
      <feGaussianBlur in="SourceGraphic" stdDeviation="4"/>
    </filter>
    <linearGradient id="grid_octocat-m" x1="100%" x2="0%" y1="51.359%" y2="48.641%">
      <stop offset="0%" stop-color="#f0f9ff"/>
      <stop offset="1.752%" stop-color="#0ea5e9"/>
      <stop offset="100%" stop-color="#075985" stop-opacity="0"/>
    </linearGradient>
    <filter id="grid_octocat-n" width="107%" height="142.6%" x="-3.5%" y="-21.3%" filterUnits="objectBoundingBox">
      <feGaussianBlur in="SourceGraphic" stdDeviation="4"/>
    </filter>
    <linearGradient id="grid_octocat-o" x1="100%" x2=".492%" y1="46.631%" y2="53.369%">
      <stop offset="0%" stop-color="#075985" stop-opacity="0"/>
      <stop offset="98.248%" stop-color="#0ea5e9"/>
      <stop offset="100%" stop-color="#f0f9ff"/>
    </linearGradient>
    <filter id="grid_octocat-p" width="107.9%" height="130.3%" x="-3.9%" y="-15.2%" filterUnits="objectBoundingBox">
      <feGaussianBlur in="SourceGraphic" stdDeviation="4"/>
    </filter>
    <linearGradient id="grid_octocat-q" x1="100%" x2=".492%" y1="41.81%" y2="58.19%">
      <stop offset="0%" stop-color="#075985" stop-opacity="0"/>
      <stop offset="98.248%" stop-color="#0ea5e9"/>
      <stop offset="100%" stop-color="#f0f9ff"/>
    </linearGradient>
    <filter id="grid_octocat-r" width="107.7%" height="119%" x="-3.8%" y="-9.5%" filterUnits="objectBoundingBox">
      <feGaussianBlur in="SourceGraphic" stdDeviation="4"/>
    </filter>
    <linearGradient id="grid_octocat-s" x1="50%" x2="50%" y1="100%" y2="8.768%">
      <stop offset="0%" stop-color="#040E21" stop-opacity="0"/>
      <stop offset="100%" stop-color="#0E0419"/>
    </linearGradient>
  </defs>
  <g fill="none" fill-rule="evenodd">
    <mask id="grid_octocat-c" fill="#f0f9ff">
      <use xlink:href="#grid_octocat-a"/>
    </mask>
    <path fill="url(#grid_octocat-b)" fill-rule="nonzero" d="M1517.97098,405.872393 C1518.01154,406.10732 1517.93807,406.335571 1517.79057,406.500445 C1517.88335,406.602757 1517.94862,406.733248 1517.97237,406.880761 C1518.03274,407.255627 1517.80406,407.61029 1517.45054,407.717521 L1517.35115,407.740461 L1431.367,421.586 L679.333,551.431 L718.027,556.097 L1517.09904,412.261863 C1517.18291,412.246766 1517.26603,412.246245 1517.3458,412.258491 L1517.41414,412.272296 L1517.50647,412.301994 L1517.5943,412.343336 C1517.64311,412.370312 1517.68885,412.402654 1517.73058,412.439742 L1517.78787,412.496442 L1517.85724,412.585565 C1517.8847,412.626882 1517.90851,412.671875 1517.92768,412.71958 L1517.95102,412.786784 L1517.97005,412.867133 C1517.99687,413.016146 1517.97768,413.162794 1517.92262,413.292479 C1517.90266,413.339549 1517.87777,413.384695 1517.84858,413.426874 C1517.8166,413.473045 1517.77954,413.515592 1517.73801,413.55363 L1517.64635,413.62533 L1517.58173,413.663655 L1517.46373,413.71337 L1517.3748,413.736262 L758.62,560.993 L795.925,565.492 L1517.07994,416.265559 C1517.48556,416.181625 1517.88242,416.442404 1517.96635,416.848024 C1518.04329,417.219843 1517.83058,417.584303 1517.48216,417.707114 L1517.38389,417.734441 L800.601,566.056 L839.773,570.78 L1517.06921,420.26786 C1517.47356,420.178004 1517.87419,420.432951 1517.96405,420.8373 C1518.04642,421.207954 1517.83906,421.575485 1517.49247,421.703379 L1517.39461,421.73214 L844.256,571.32 L888.034,576.6 L1517.05648,425.270806 C1517.4592,425.173918 1517.86422,425.421846 1517.9611,425.824569 C1518.04992,426.193732 1517.84899,426.56482 1517.50469,426.698732 L1517.40734,426.729194 L892.311,577.116 L939.208,582.772 L1517.0419,431.441049 C1517.4426,431.336107 1517.8525,431.575866 1517.95744,431.976565 C1518.05364,432.343873 1517.86019,432.718915 1517.51864,432.859703 L1517.42192,432.89211 L943.269,583.261 L992.835,589.239 L1517.02584,439.445445 C1517.42411,439.331635 1517.83923,439.562236 1517.95304,439.960507 C1518.05737,440.325589 1517.8723,440.704833 1517.53396,440.853167 L1517.43798,440.887713 L996.673,589.702 L1047.843,595.873 L1517.00569,447.451509 C1517.40062,447.326573 1517.82204,447.54544 1517.94698,447.940362 C1518.06151,448.302374 1517.88714,448.686659 1517.55309,448.844426 L1517.45813,448.88165 L1051.447,596.308 L1105.333,602.806 L1516.98068,456.45991 C1517.37096,456.321157 1517.79983,456.525063 1517.93858,456.915345 C1518.06577,457.273104 1517.90503,457.663286 1517.57674,457.832707 L1517.48314,457.873249 L1108.682,603.21 L1168.561,610.432 L1516.95175,470.137711 C1517.33598,469.982985 1517.77289,470.169034 1517.92762,470.553264 C1518.06945,470.905475 1517.92494,471.301952 1517.60391,471.484764 L1517.51207,471.529131 L1171.65,610.804 L1234.673,618.405 L1516.91434,486.487131 C1517.28959,486.311743 1517.73597,486.473762 1517.91136,486.849011 C1518.07213,487.192989 1517.94939,487.596737 1517.63878,487.796733 L1517.54948,487.846028 L1237.488,618.744 L1305.322,626.925 L1516.86794,509.510817 C1517.23011,509.309801 1517.68666,509.440439 1517.88767,509.802607 C1518.07194,510.134594 1517.97752,510.545889 1517.68154,510.766966 L1517.59588,510.822341 L1307.862,627.232 L1381.366,636.096 L1516.80878,543.54734 C1517.15077,543.313649 1517.61746,543.401449 1517.85115,543.743445 C1518.0636,544.054351 1518.01035,544.468306 1517.74196,544.716577 L1517.65505,544.785819 L1383.626,636.369 L1464.262,646.093 L1516.73456,599.605208 C1517.04459,599.330526 1517.5186,599.359187 1517.79328,599.669224 C1518.04299,599.951076 1518.04201,600.368441 1517.80683,600.648368 L1517.72927,600.727951 L1466.252,646.333 L1518.0898,652.585034 C1518.50103,652.634628 1518.7942,653.008204 1518.76076,653.419437 C1518.69914,653.796402 1518.38145,654.074157 1518.01206,654.079631 L1517.9102,654.074243 L1464.752,647.663 L1451.582,659.331 L1517.33096,668.091909 C1517.74155,668.146612 1518.03005,668.523804 1517.97534,668.934389 C1517.9252,669.310759 1517.60407,669.584543 1517.23464,669.585424 L1517.13286,669.57877 L1450.097,660.647 L1434.826,674.176 L1517.33145,685.22486 C1517.742,685.279835 1518.03025,685.657217 1517.97528,686.067767 C1517.92488,686.444103 1517.60358,686.717675 1517.23415,686.718312 L1517.13237,686.71159 L1433.342,675.491 L1418.112,688.984 L1514.522,703.387 L1516.64329,700.701799 C1516.89998,700.37671 1517.3716,700.321263 1517.69669,700.577955 C1517.99223,700.81131 1518.06492,701.222297 1517.88284,701.539338 L1517.82054,701.63136 L1516.232,703.642 L1517.34272,703.808919 C1517.75239,703.870118 1518.03488,704.25183 1517.97368,704.661498 C1517.91758,705.037027 1517.59216,705.305691 1517.22277,705.300722 L1517.1211,705.292458 L1515.161,704.999 L1500.601,723.439 L1517.34643,726.026883 C1517.75579,726.09013 1518.03636,726.473251 1517.97312,726.882608 C1517.91514,727.257851 1517.58838,727.524884 1517.21901,727.518067 L1517.11739,727.509293 L1499.532,724.792 L1484.117,744.315 L1518.1221,749.926584 C1518.53078,749.994017 1518.80743,750.379988 1518.73999,750.788676 C1518.67818,751.163307 1518.34871,751.426982 1517.97943,751.416387 L1517.8779,751.406574 L1483.055,745.66 L1465.041,768.474 L1517.36224,777.707298 C1517.77016,777.77928 1518.04248,778.16831 1517.9705,778.576221 C1517.90452,778.950139 1517.57212,779.210128 1517.20299,779.195419 L1517.10158,779.184475 L1463.986,769.811 L1443.997,795.126 L1517.37219,809.096656 C1517.77909,809.17413 1518.04615,809.566795 1517.96868,809.973699 C1517.89766,810.346694 1517.56179,810.602178 1517.19289,810.582494 L1517.09163,810.570185 L1442.948,796.453 L1419.627,825.989 L1517.38279,846.065727 C1517.78854,846.149056 1518.04991,846.545529 1517.96658,846.951275 C1517.89019,847.323208 1517.55068,847.573825 1517.1821,847.548827 L1517.08103,847.53506 L1418.586,827.307 L1391.382,861.759 L1517.39601,890.01564 C1517.80019,890.106269 1518.05437,890.507389 1517.96374,890.911566 C1517.88066,891.282062 1517.53669,891.526519 1517.16862,891.494882 L1517.06781,891.479295 L1390.351,863.065 L1358.23,903.745 L1518.17908,943.073158 C1518.58131,943.172059 1518.82721,943.578309 1518.72831,943.980542 C1518.63765,944.349256 1518.28873,944.586605 1517.92139,944.547424 L1517.82092,944.529773 L1357.209,905.038 L1319.481,952.819 L1495.32,1000.997 L1516.54805,953.858618 C1516.71814,953.480934 1517.16219,953.31264 1517.53987,953.482723 C1517.88608,953.638632 1518.05635,954.024752 1517.95131,954.378935 L1517.91577,954.474541 L1496.784,1001.398 L1518.19819,1007.26544 C1518.59768,1007.37489 1518.8328,1007.78748 1518.72334,1008.18697 C1518.62301,1008.55317 1518.26796,1008.78125 1517.90178,1008.73241 L1517.80181,1008.71212 L1496.16,1002.783 L1464.809,1072.401 L1518.22082,1088.85675 C1518.61668,1088.97871 1518.83871,1089.39848 1518.71675,1089.79433 C1518.60496,1090.1572 1518.24292,1090.37401 1517.87845,1090.31368 L1517.77918,1090.29026 L1464.188,1073.779 L1449.91577,1105.47454 C1449.74568,1105.85222 1449.30163,1106.02052 1448.92395,1105.85044 C1448.57774,1105.69453 1448.40747,1105.30841 1448.51251,1104.95422 L1448.54805,1104.85862 L1462.744,1073.334 L1270.973,1014.252 L1214.606,1085.638 L1267.98115,1104.45927 C1268.37179,1104.59701 1268.5768,1105.02535 1268.43905,1105.41599 C1268.31278,1105.77408 1267.94234,1105.97618 1267.58058,1105.90128 L1267.48233,1105.87389 L1213.624,1086.882 L1198.82054,1105.63136 C1198.56384,1105.95645 1198.09222,1106.0119 1197.76713,1105.7552 C1197.4716,1105.52185 1197.3989,1105.11086 1197.58099,1104.79382 L1197.64329,1104.7018 L1212.129,1086.355 L1038.643,1025.18 L955.387,1098.943 L970.472115,1105.13967 C970.855265,1105.29705 971.038285,1105.73524 970.880903,1106.11839 C970.736636,1106.46961 970.356414,1106.65266 969.998923,1106.55951 L969.902183,1106.52717 L954.136,1100.051 L947.729266,1105.72795 C947.419229,1106.00263 946.945221,1105.97397 946.67054,1105.66393 C946.420829,1105.38208 946.421815,1104.96472 946.656993,1104.68479 L946.734556,1104.60521 L952.591,1099.416 L798.565,1036.149 L696.655045,1105.78582 C696.313049,1106.01951 695.846362,1105.93171 695.612672,1105.58971 C695.400225,1105.27881 695.453474,1104.86485 695.721858,1104.61658 L695.808777,1104.54734 L796.904,1035.466 L667.856,982.459 L550.669,1047.502 L666.214742,1104.49395 C666.586225,1104.67718 666.738835,1105.12686 666.555606,1105.49835 C666.387645,1105.83887 665.99579,1105.99548 665.64551,1105.87809 L665.55121,1105.83921 L549.073,1048.388 L445.595883,1105.82234 C445.233716,1106.02336 444.777165,1105.89272 444.576149,1105.53055 C444.391884,1105.19856 444.486301,1104.78727 444.782278,1104.56619 L444.867938,1104.51082 L547.436,1047.58 L436.768,992.994 L293.448,1059.981 L366.750509,1105.19509 C367.103052,1105.41254 367.212562,1105.87461 366.995108,1106.22716 C366.795774,1106.55032 366.390893,1106.66927 366.053249,1106.51936 L365.963036,1106.47176 L291.823,1060.74 L195.317568,1105.84603 C194.942319,1106.02142 194.49594,1105.8594 194.320552,1105.48415 C194.159779,1105.14017 194.282522,1104.73642 194.593133,1104.53643 L194.682432,1104.48713 L290.296,1059.798 L198.018,1002.879 L25.238,1072.456 L65.0487629,1105.25456 C65.3684577,1105.51794 65.4141112,1105.99061 65.1507329,1106.31031 C64.9112981,1106.60094 64.4988915,1106.66509 64.1856959,1106.47647 L64.0949857,1106.41228 L23.653,1073.094 L-57.7198433,1105.86229 C-58.1040732,1106.01702 -58.5409836,1105.83097 -58.6957099,1105.44674 C-58.8375423,1105.09453 -58.6930284,1104.69805 -58.3720029,1104.51524 L-58.2801567,1104.47087 L22.334,1072.008 L-47.687,1014.321 L-116.748766,1038.87325 C-117.139049,1039.012 -117.567916,1038.8081 -117.706669,1038.41781 C-117.833859,1038.06005 -117.673121,1037.66987 -117.344831,1037.50045 L-117.251234,1037.45991 L-49.038,1013.208 L-109.338,963.529 L-116.773783,965.88165 C-117.168705,966.006586 -117.590134,965.787719 -117.71507,965.392797 C-117.829595,965.030784 -117.65523,964.646499 -117.321183,964.488733 L-117.226217,964.451509 L-110.718,962.392 L-117.244978,957.016618 C-117.564673,956.753239 -117.610326,956.280565 -117.346948,955.96087 C-117.107513,955.670239 -116.695106,955.606088 -116.381911,955.794706 L-116.291201,955.8589 L-109.014,961.853 L49.966,911.558 L-6.898,876.483 L-116.793928,907.887713 C-117.192199,908.001524 -117.607324,907.770923 -117.721134,907.372651 C-117.82546,907.007569 -117.640385,906.628326 -117.302045,906.479991 L-117.206072,906.445445 L-8.626,875.417 L-57.4,845.333 L-116.809986,860.89211 C-117.210685,860.997052 -117.620589,860.757293 -117.725531,860.356593 C-117.821727,859.989286 -117.62828,859.614244 -117.28673,859.473456 L-117.190014,859.441049 L-59.165,844.244 L-103.743,816.748 L-116.824569,819.895773 C-117.227292,819.992661 -117.632306,819.744733 -117.729194,819.34201 C-117.818008,818.972848 -117.61708,818.60176 -117.272777,818.467847 L-117.175431,818.437385 L-105.541,815.638 L-117.161826,808.471756 C-117.514368,808.254301 -117.623879,807.792227 -117.406424,807.439684 C-117.207091,807.11652 -116.802209,806.99757 -116.464565,807.147485 L-116.374353,807.195086 L-103.487,815.144 L17.284,786.089 L-26.039,764.72 L-116.8373,784.898719 C-117.24165,784.988576 -117.642283,784.733629 -117.73214,784.329279 C-117.814508,783.958625 -117.607146,783.591094 -117.260561,783.4632 L-117.1627,783.434439 L-28.186,763.661 L-65.473,745.27 L-116.848024,755.90102 C-117.253645,755.984954 -117.650507,755.724175 -117.750204,755.318555 C-117.81138,754.946736 -117.598665,754.582277 -117.250248,754.459465 L-117.151976,754.432138 L-67.66,744.191 L-100.887,727.803 L-116.857109,730.902842 C-117.263735,730.981758 -117.657345,730.716097 -117.750204,730.309471 C-117.808603,729.93673 -117.591402,729.574926 -117.241493,729.456428 L-117.142891,729.430317 L-103.109,726.706 L-117.099855,719.806629 C-117.471339,719.623399 -117.623949,719.173716 -117.440719,718.802232 C-117.272759,718.461706 -116.880903,718.305094 -116.530624,718.42249 L-116.436323,718.461368 L-100.676,726.234 L-2.373,707.156 L-35.991,693.346 L-116.867133,707.904716 C-117.274795,707.978097 -117.664757,707.707108 -117.750204,707.299446 C-117.805402,706.925756 -117.583302,706.566939 -117.231815,706.45321 L-117.132867,706.428442 L-38.571,692.287 L-67.54,680.387 L-116.872393,688.905644 C-117.280567,688.976119 -117.668589,688.70236 -117.750204,688.294186 C-117.803667,687.920027 -117.579017,687.5628 -117.226729,687.451577 L-117.127607,687.427515 L-70.149,679.316 L-98.016,667.869 L-116.880761,670.90704 C-117.289706,670.972894 -117.674607,670.694764 -117.750204,670.285819 C-117.800827,669.910952 -117.572151,669.55629 -117.218627,669.449058 L-117.119239,669.426119 L-100.673,666.778 L-116.516877,660.270377 C-116.900026,660.112995 -117.083047,659.674807 -116.925665,659.291657 C-116.781398,658.940437 -116.401176,658.75738 -116.043685,658.850534 L-115.946945,658.882869 L-97.836,666.321 L-16.294,653.19 L-117.017501,617.673163 C-117.40814,617.535416 -117.61315,617.107075 -117.475403,616.716436 C-117.349136,616.358351 -116.978688,616.156245 -116.616932,616.231148 L-116.518677,616.258534 L-13.197,652.691 L59.447,640.993 L-116.452735,586.800044 C-116.848588,586.678086 -117.070623,586.258317 -116.948665,585.862465 C-116.83687,585.4996 -116.474832,585.28279 -116.110361,585.343114 L-116.011086,585.366536 L62.794,640.454 L132.666,629.202 L-116.966275,560.806631 C-117.365766,560.697175 -117.600885,560.284594 -117.49143,559.885103 C-117.391096,559.518904 -117.036052,559.290822 -116.669865,559.339659 L-116.569903,559.359949 L136.242,628.626 L194.729,619.208 L-116.947165,542.573029 C-117.349398,542.474128 -117.595298,542.067879 -117.496397,541.665646 C-117.405737,541.296932 -117.05682,541.059582 -116.689475,541.098764 L-116.589013,541.116415 L198.525,618.596 L257.642,609.076 L-116.932188,525.085737 C-117.336365,524.995108 -117.590546,524.593988 -117.499917,524.189811 C-117.41684,523.819315 -117.072865,523.574858 -116.704793,523.606495 L-116.603991,523.622082 L261.631,608.434 L312.765,600.2 L-116.382792,512.064492 C-116.788537,511.981163 -117.049907,511.584689 -116.966577,511.178944 C-116.897136,510.840823 -116.610234,510.602963 -116.281723,510.581292 L-116.182097,510.581392 L-116.08103,510.595159 L316.944,599.527 L366.634,591.525 L-116.372189,499.56262 C-116.779093,499.485147 -117.046149,499.092481 -116.968675,498.685578 C-116.904114,498.346491 -116.62067,498.104521 -116.292505,498.078118 L-116.192888,498.076782 L-116.091633,498.089091 L370.978,590.826 L412.136,584.198 L-116.898423,490.843088 C-117.306334,490.771106 -117.578659,490.382076 -117.506678,489.974165 C-117.446693,489.634239 -117.166536,489.38847 -116.838757,489.357646 L-116.739167,489.354968 L-116.637755,489.365911 L416.651,583.471 L458.866,576.673 L-116.890186,481.675068 C-117.298874,481.607636 -117.575516,481.221664 -117.508084,480.812976 C-117.451891,480.472403 -117.174489,480.223528 -116.847074,480.189053 L-116.74752,480.185266 L-116.645992,480.195078 L463.53,575.922 L499.016,570.207 L-116.34643,475.131902 C-116.755787,475.068655 -117.036364,474.685534 -116.973116,474.276178 C-116.92041,473.935047 -116.645569,473.683347 -116.318524,473.645524 L-116.219014,473.640718 L-116.117391,473.649492 L503.826,569.433 L553.799,561.386 L316.633,525.957 L-116.331452,467.980749 C-116.742001,467.925774 -117.030251,467.548392 -116.975276,467.137843 C-116.929463,466.795719 -116.659757,466.538525 -116.333541,466.494111 L-116.234149,466.487298 L-116.13237,466.494019 L218.905,511.357 L-116.34272,461.276891 C-116.752388,461.215693 -117.034878,460.833981 -116.97368,460.424313 C-116.922681,460.082923 -116.649103,459.829851 -116.322251,459.790392 L-116.222767,459.785089 L-116.121101,459.793353 L316.87,524.475 L571.376,558.555 L622.295,550.355 L282.56,505.091 L-116.32171,456.986134 C-116.732944,456.936539 -117.02611,456.562964 -116.976516,456.15173 C-116.935187,455.809035 -116.668871,455.548332 -116.343265,455.49965 L-116.24397,455.491537 L-116.142112,455.496925 L162.924,489.152 L-116.867139,451.874877 C-117.277725,451.820174 -117.566224,451.442982 -117.51152,451.032397 C-117.465933,450.690242 -117.196397,450.43287 -116.870211,450.388241 L-116.770822,450.381362 L-116.669039,450.388016 L282.667,503.593 L642.9,547.037 L1431.067,420.115 L1517.1043,405.260935 C1517.51248,405.19046 1517.9005,405.464219 1517.97098,405.872393 Z M890.873,973.074 L800.048,1035.136 L953.842,1098.308 L1037.026,1024.61 L890.873,973.074 Z M1107.741,963.961 L1039.927,1024.043 L1213.111,1085.111 L1269.436,1013.778 L1107.741,963.961 Z M1318.471,954.098 L1271.97,1012.989 L1463.365,1071.956 L1494.696,1002.382 L1318.471,954.098 Z M119.947,954.724 L-46.039,1013.735 L23.918,1071.369 L196.431,1001.9 L119.947,954.724 Z M340.49,945.507 L199.746,1002.183 L291.92,1059.039 L435.043,992.144 L340.49,945.507 Z M556.858,936.865 L438.509,992.18 L549.032,1046.694 L666.079,981.729 L556.858,936.865 Z M764.837,928.631 L669.536,981.527 L798.387,1034.453 L889.119,972.455 L764.837,928.631 Z M967.459,920.742 L892.408,972.025 L1038.309,1023.472 L1106.063,963.445 L967.459,920.742 Z M51.653,912.599 L-107.634,962.99 L-47.39,1012.622 L118.308,953.713 L51.653,912.599 Z M1166.02,912.328 L1109.056,962.797 L1270.433,1012.515 L1316.9,953.668 L1166.02,912.328 Z M258.971,905.298 L121.758,954.08 L198.158,1001.204 L338.684,944.616 L258.971,905.298 Z M460.37,897.232 L342.357,944.755 L436.785,991.33 L554.972,936.09 L460.37,897.232 Z M656.334,890.371 L558.705,936.002 L667.759,980.797 L762.946,927.964 L656.334,890.371 Z M846.302,883.415 L766.589,927.659 L890.654,971.406 L965.626,920.177 L846.302,883.415 Z M1033.077,875.904 L969.042,919.66 L1107.378,962.28 L1164.293,911.855 L1033.077,875.904 Z M186.977,869.788 L53.54,912.001 L120.12,953.069 L257.094,904.372 L186.977,869.788 Z M1213.995,869.825 L1167.362,911.14 L1317.91,952.388 L1355.608,904.644 L1213.995,869.825 Z M377.457,863.174 L260.941,904.597 L340.551,943.864 L458.381,896.415 L377.457,863.174 Z M560.939,856.733 L462.364,896.429 L556.819,935.227 L654.314,889.659 L560.939,856.733 Z M740.776,850.903 L658.273,889.464 L764.698,926.992 L844.313,882.802 L740.776,850.903 Z M917.09,844.125 L848.121,882.405 L967.209,919.095 L1031.179,875.384 L917.09,844.125 Z M124.452,838.948 L-4.947,875.925 L51.854,910.961 L185.033,868.829 L124.452,838.948 Z M1087.493,838.72 L1034.702,874.793 L1165.634,910.667 L1212.225,869.389 L1087.493,838.72 Z M303.678,832.869 L189.043,869.134 L259.064,903.672 L375.378,862.32 L303.678,832.869 Z M1255.703,832.873 L1215.36,868.616 L1356.63,903.351 L1388.727,862.701 L1255.703,832.873 Z M477.919,827.458 L379.574,862.422 L460.375,895.612 L558.797,855.978 L477.919,827.458 Z M647.092,822.04 L563.045,855.885 L656.254,888.752 L738.641,850.245 L647.092,822.04 Z M815.079,816.175 L742.801,849.957 L846.132,881.792 L915.02,843.557 L815.079,816.175 Z M69.836,812.01 L-55.395,844.808 L-6.675,874.86 L122.45,837.961 L69.836,812.01 Z M976.151,811.344 L918.967,843.083 L1032.804,874.273 L1085.538,838.24 L976.151,811.344 Z M1135.497,805.919 L1089.155,837.585 L1213.589,868.18 L1253.898,832.468 L1135.497,805.919 Z M238.875,806.25 L126.598,838.335 L187.099,868.176 L301.514,831.98 L238.875,806.25 Z M403.608,801.255 L305.908,832.163 L377.494,861.568 L475.668,826.665 L403.608,801.255 Z M1291.456,801.197 L1257.088,831.646 L1389.759,861.395 L1416.942,826.969 L1291.456,801.197 Z M564.624,796.633 L480.165,826.66 L560.903,855.13 L644.815,821.339 L564.624,796.633 Z M723.778,791.159 L649.3,821.151 L740.665,849.299 L812.845,815.563 L723.778,791.159 Z M19.385,787.125 L-101.688,816.254 L-57.16,843.719 L67.783,810.997 L19.385,787.125 Z M877.377,787.057 L817.177,815.194 L916.897,842.516 L974.009,810.817 L877.377,787.057 Z M181.623,782.733 L72.051,811.43 L124.597,837.347 L236.636,805.331 L181.623,782.733 Z M1028.963,782.031 L978.08,810.273 L1087.2,837.104 L1133.495,805.47 L1028.963,782.031 Z M337.693,778.012 L241.204,805.585 L303.745,831.274 L401.257,800.426 L337.693,778.012 Z M1176.851,777.661 L1137.191,804.761 L1255.283,831.241 L1289.619,800.82 L1176.851,777.661 Z M490.453,773.781 L405.986,800.503 L477.914,825.866 L562.223,795.893 L490.453,773.781 Z M1322.661,773.551 L1292.859,799.954 L1417.982,825.651 L1441.286,796.137 L1322.661,773.551 Z M642.588,768.915 L566.99,795.792 L647.024,820.449 L721.387,790.504 L642.588,768.915 Z M788.335,765.163 L726.077,790.234 L814.944,814.582 L875.056,786.486 L788.335,765.163 Z M128.441,760.888 L21.664,786.577 L69.997,810.417 L179.317,781.786 L128.441,760.888 Z M933.79,760.69 L879.542,786.045 L975.937,809.746 L1026.761,781.537 L933.79,760.69 Z M278.861,757.267 L184.034,782.102 L238.965,804.665 L335.25,777.151 L278.861,757.267 Z M1074.653,756.672 L1030.936,780.936 L1135.189,804.312 L1174.807,777.241 L1074.653,756.672 Z M424.069,753.329 L340.184,777.3 L403.634,799.674 L487.934,773.005 L424.069,753.329 Z M1213.33,752.735 L1178.575,776.483 L1291.023,799.577 L1320.799,773.196 L1213.33,752.735 Z M569.305,748.836 L492.967,772.986 L564.589,795.052 L640.058,768.221 L569.305,748.836 Z M1349.654,749.636 L1324.08,772.294 L1442.335,794.809 L1462.307,769.515 L1349.654,749.636 Z M708.414,745.512 L645.06,768.036 L723.686,789.579 L785.84,764.55 L708.414,745.512 Z M80.261,741.098 L-23.702,764.201 L19.562,785.54 L126.073,759.916 L80.261,741.098 Z M847.494,741.34 L790.716,764.204 L877.221,785.474 L931.396,760.153 L847.494,741.34 Z M223.961,737.908 L130.931,760.289 L181.729,781.155 L276.337,756.377 L223.961,737.908 Z M982.764,737.8 L936.013,759.651 L1028.734,780.442 L1072.396,756.208 L982.764,737.8 Z M364.258,734.902 L281.45,756.589 L337.741,776.439 L421.443,752.52 L364.258,734.902 Z M1115.356,734.08 L1076.667,755.554 L1176.53,776.063 L1211.25,752.338 L1115.356,734.08 Z M503.188,730.72 L426.713,752.574 L490.448,772.21 L566.64,748.106 L503.188,730.72 Z M1244.914,731.153 L1215.078,751.54 L1322.218,771.939 L1347.768,749.303 L1244.914,731.153 Z M1374.38,727.73 L1351.088,748.366 L1463.363,768.178 L1481.363,745.381 L1374.38,727.73 Z M636.051,727.72 L571.94,748.002 L642.53,767.343 L705.766,744.861 L636.051,727.72 Z M769.403,723.829 L710.982,744.599 L788.222,763.591 L844.915,740.761 L769.403,723.829 Z M38.193,723.818 L-63.085,744.776 L-25.849,763.142 L77.834,740.101 L38.193,723.818 Z M173.958,720.276 L82.823,740.528 L128.563,759.317 L221.361,736.991 L173.958,720.276 Z M899.003,720.598 L849.947,740.352 L933.619,759.114 L980.302,737.295 L899.003,720.598 Z M308.221,717.637 L226.643,737.263 L278.925,755.699 L361.537,734.063 L308.221,717.637 Z M1026.797,717.219 L985.04,736.736 L1074.41,755.09 L1113.053,733.642 L1026.797,717.219 Z M443.093,714.255 L367.012,734.18 L424.087,751.765 L500.401,729.957 L443.093,714.255 Z M1150.611,714.512 L1117.404,732.943 L1212.998,751.144 L1242.8,730.78 L1150.611,714.512 Z M1274.13,711.189 L1246.685,729.942 L1349.201,748.033 L1372.473,727.415 L1274.13,711.189 Z M570.279,711.548 L505.967,729.926 L569.275,747.272 L633.253,727.032 L570.279,711.548 Z M1395.788,708.763 L1375.827,726.448 L1482.425,744.036 L1497.828,724.529 L1395.788,708.763 Z M698.562,707.944 L638.799,726.851 L708.334,743.948 L766.656,723.213 L698.562,707.944 Z M0.152,708.193 L-98.454,727.33 L-65.272,743.697 L35.714,722.8 L0.152,708.193 Z M822.617,704.91 L772.055,722.886 L847.367,739.774 L896.343,720.052 L822.617,704.91 Z M130.081,704.804 L40.819,723.275 L80.397,739.532 L171.285,719.334 L130.081,704.804 Z M256.935,701.837 L176.726,719.661 L224.042,736.346 L305.408,716.771 L256.935,701.837 Z M945.725,701.783 L901.521,719.584 L982.579,736.231 L1024.281,716.74 L945.725,701.783 Z M386.607,698.779 L311.082,716.949 L364.291,733.342 L440.199,713.462 L386.607,698.779 Z M1064.936,699.393 L1029.119,716.134 L1115.101,732.505 L1148.265,714.098 L1064.936,699.393 Z M1183.531,696.24 L1152.693,713.356 L1244.572,729.569 L1271.988,710.835 L1183.531,696.24 Z M510.012,696.729 L445.996,713.495 L503.18,729.163 L567.346,710.827 L510.012,696.729 Z M633.749,693.411 L573.185,710.718 L636.001,726.163 L695.652,707.292 L633.749,693.411 Z M1299.46,693.88 L1275.922,709.964 L1373.92,726.133 L1393.862,708.465 L1299.46,693.88 Z M1416.647,690.283 L1397.247,707.47 L1498.897,723.176 L1513.451,704.744 L1416.647,690.283 Z M753.211,690.656 L701.406,707.045 L769.308,722.271 L819.78,704.327 L753.211,690.656 Z M90.154,690.725 L2.834,707.672 L38.34,722.256 L127.344,703.839 L90.154,690.725 Z M871.281,687.609 L825.348,703.939 L898.862,719.037 L942.998,701.264 L871.281,687.609 Z M211.73,687.909 L132.924,704.216 L174.053,718.719 L254.038,700.944 L211.73,687.909 Z M334.697,684.556 L259.895,701.179 L308.269,716.082 L383.609,697.957 L334.697,684.556 Z M986.173,685.495 L948.3,700.746 L1026.602,715.655 L1062.365,698.94 L986.173,685.495 Z M1100.866,682.601 L1067.302,698.288 L1150.347,712.942 L1181.147,695.847 L1100.866,682.601 Z M453.193,682.759 L389.63,698.051 L443.103,712.702 L506.958,695.979 L453.193,682.759 Z M573.913,679.994 L513.054,695.933 L570.252,709.996 L630.69,692.725 L573.913,679.994 Z M1212.101,680.382 L1185.642,695.068 L1273.781,709.61 L1297.292,693.545 L1212.101,680.382 Z M1324.804,676.563 L1301.272,692.642 L1395.321,707.173 L1414.712,689.994 L1324.804,676.563 Z M52.443,677.428 L-33.246,692.852 L0.309,706.635 L87.361,689.74 L52.443,677.428 Z M689.314,677.533 L636.763,692.55 L698.496,706.392 L750.195,690.037 L689.314,677.533 Z M803.584,674.72 L756.147,689.727 L822.51,703.357 L868.366,687.054 L803.584,674.72 Z M170.351,675.161 L93.064,690.161 L130.187,703.251 L208.755,686.993 L170.351,675.161 Z M288.759,671.97 L214.778,687.279 L256.999,700.286 L331.601,683.708 L288.759,671.97 Z M913.367,672.647 L874.078,686.615 L945.573,700.227 L983.381,685.002 L913.367,672.647 Z M1024.606,670.018 L988.804,684.435 L1064.731,697.834 L1098.248,682.169 L1024.606,670.018 Z M400.778,669.871 L337.832,683.859 L386.632,697.23 L450.023,681.979 L400.778,669.871 Z M517.378,667.317 L456.369,681.995 L510,695.182 L570.723,679.279 L517.378,667.317 Z M1132.068,668.017 L1103.27,681.477 L1183.259,694.675 L1209.683,680.009 L1132.068,668.017 Z M1241.424,664.107 L1214.24,679.195 L1299.104,692.307 L1322.622,676.237 L1241.424,664.107 Z M629.901,665.331 L577.075,679.166 L633.704,691.864 L686.137,676.881 L629.901,665.331 Z M18.639,665.508 L-64.759,679.907 L-35.825,691.793 L49.582,676.419 L18.639,665.508 Z M131.512,663.195 L55.43,676.89 L90.271,689.176 L167.31,674.224 L131.512,663.195 Z M740.914,662.788 L692.432,676.642 L753.13,689.108 L800.48,674.129 L740.914,662.788 Z M1343.9,663.514 L1326.625,675.318 L1416.177,688.695 L1431.377,675.228 L1343.9,663.514 Z M246.482,660.386 L173.478,674.555 L211.803,686.362 L285.574,671.097 L246.482,660.386 Z M847.101,660.954 L806.598,673.767 L871.164,686.06 L910.376,672.119 L847.101,660.954 Z M953.68,658.315 L916.231,671.629 L986.011,683.943 L1021.758,669.548 L953.68,658.315 Z M354.221,658.424 L291.994,671.3 L334.736,683.011 L397.496,669.064 L354.221,658.424 Z M465.061,655.586 L404.078,669.138 L453.198,681.215 L514.059,666.573 L465.061,655.586 Z M1057.994,656.572 L1027.284,668.939 L1100.652,681.045 L1129.406,667.606 L1057.994,656.572 Z M-13.336,654.233 L-95.179,667.412 L-67.368,678.836 L15.741,664.486 L-13.336,654.233 Z M1164.894,652.674 L1134.509,666.876 L1211.822,678.821 L1238.988,663.743 L1164.894,652.674 Z M573.652,653.779 L520.685,666.522 L573.885,678.451 L626.582,664.65 L573.652,653.779 Z M682.257,651.619 L633.178,664.473 L689.255,675.99 L737.639,662.164 L682.257,651.619 Z M95.784,652.188 L21.668,664.985 L52.569,675.881 L128.39,662.233 L95.784,652.188 Z M1262.202,652.574 L1243.577,662.912 L1324.444,674.992 L1341.677,663.216 L1262.202,652.574 Z M1364.74,649.274 L1345.752,662.249 L1432.862,673.913 L1448.131,660.385 L1364.74,649.274 Z M207.085,649.592 L134.729,662.616 L170.436,673.617 L243.219,659.492 L207.085,649.592 Z M785.421,650.069 L744.121,661.871 L803.493,673.175 L843.907,660.39 L785.421,650.069 Z M889.115,647.662 L850.192,659.976 L913.24,671.101 L950.622,657.811 L889.115,647.662 Z M311.155,647.835 L249.806,659.741 L288.809,670.428 L350.839,657.592 L311.155,647.835 Z M988.698,645.866 L956.601,657.277 L1024.436,668.469 L1055.092,656.124 L988.698,645.866 Z M418.447,645.134 L357.632,657.718 L400.796,668.331 L461.62,654.814 L418.447,645.134 Z M1093.981,642.081 L1060.719,655.475 L1131.847,666.465 L1162.21,652.273 L1093.981,642.081 Z M521.443,643.057 L468.504,654.821 L517.366,665.777 L570.191,653.068 L521.443,643.057 Z M62.686,641.991 L-10.238,653.734 L18.769,663.963 L92.618,651.212 L62.686,641.991 Z M626.643,641.031 L577.086,652.953 L629.86,663.791 L678.828,650.966 L626.643,641.031 Z M1186.73,642.468 L1167.353,651.525 L1241.141,662.548 L1259.711,652.241 L1186.73,642.468 Z M1286.846,638.896 L1264.399,651.355 L1343.529,661.951 L1362.515,648.978 L1286.846,638.896 Z M169.871,639.396 L99.05,651.624 L131.606,661.654 L203.728,648.672 L169.871,639.396 Z M727.322,639.817 L685.633,650.735 L740.845,661.247 L782.045,649.474 L727.322,639.817 Z M828.716,637.697 L788.717,649.127 L846.998,659.412 L885.844,647.123 L828.716,637.697 Z M1381.747,637.653 L1366.593,648.008 L1449.616,659.069 L1462.761,647.423 L1381.747,637.653 Z M271.295,638.034 L210.512,648.975 L246.543,658.847 L307.684,646.981 L271.295,638.034 Z M375.124,635.419 L314.666,647.153 L354.251,656.886 L414.894,644.337 L375.124,635.419 Z M925.607,636.118 L892.274,646.663 L953.543,656.772 L985.577,645.383 L925.607,636.118 Z M1027.345,632.127 L991.675,644.808 L1057.817,655.027 L1091.052,641.643 L1027.345,632.127 Z M474.788,633.475 L422.012,644.396 L465.063,654.049 L517.849,642.319 L474.788,633.475 Z M574.897,631.178 L525.024,642.261 L573.625,652.242 L623.061,640.349 L574.897,631.178 Z M1116.405,633.051 L1096.728,640.975 L1164.669,651.124 L1183.977,642.099 L1116.405,633.051 Z M1214.886,629.309 L1189.247,641.292 L1261.908,651.021 L1284.352,638.564 L1214.886,629.309 Z M136.159,630.159 L66.033,641.452 L95.883,650.648 L166.463,638.462 L136.159,630.159 Z M672.153,630.082 L630.186,640.178 L682.204,650.082 L723.783,639.192 L672.153,630.082 Z M771.478,628.253 L730.797,638.907 L785.341,648.532 L825.256,637.126 L771.478,628.253 Z M232.708,628.546 L173.355,638.794 L207.155,648.055 L267.716,637.154 L232.708,628.546 Z M1305.626,628.473 L1289.045,637.676 L1364.368,647.711 L1379.487,637.38 L1305.626,628.473 Z M335.358,626.503 L274.923,637.381 L311.195,646.3 L371.475,634.601 L335.358,626.503 Z M866.305,626.955 L832.089,636.733 L889.003,646.123 L922.263,635.601 L866.305,626.955 Z M966.809,623.083 L928.831,635.098 L988.553,644.325 L1024.19,631.655 L966.809,623.083 Z M431.233,624.53 L378.799,634.706 L418.459,643.6 L471.075,632.712 L431.233,624.53 Z M528.542,622.352 L478.502,632.707 L521.43,641.523 L571.172,630.469 L528.542,622.352 Z M1147.871,620.38 L1119.226,631.915 L1186.494,640.923 L1212.129,628.941 L1147.871,620.38 Z M1049.823,624.135 L1030.349,631.059 L1093.8,640.537 L1113.392,632.648 L1049.823,624.135 Z M620.694,621.001 L578.597,630.356 L626.604,639.496 L668.451,629.428 L620.694,621.001 Z M717.07,619.276 L675.806,629.203 L727.259,638.282 L767.844,627.653 L717.07,619.276 Z M198.463,620.126 L139.735,629.583 L169.947,637.861 L229.073,627.652 L198.463,620.126 Z M1234.919,619.945 L1217.405,628.131 L1286.551,637.344 L1303.086,628.166 L1234.919,619.945 Z M295.851,617.644 L236.399,627.909 L271.343,636.501 L331.587,625.657 L295.851,617.644 Z M809.779,618.222 L775.04,627.32 L828.629,636.162 L862.762,626.408 L809.779,618.222 Z M909.706,614.553 L869.753,625.97 L925.487,634.581 L963.428,622.578 L909.706,614.553 Z M391.57,616.384 L339.16,625.818 L375.149,633.888 L427.411,623.745 L391.57,616.384 Z M485.086,614.078 L435.066,623.786 L474.788,631.944 L524.687,621.618 L485.086,614.078 Z M1084.235,611.901 L1052.916,623.036 L1116.212,631.512 L1144.854,619.978 L1084.235,611.901 Z M989.161,616.012 L970.066,622.053 L1027.194,630.587 L1046.567,623.699 L989.161,616.012 Z M574.481,612.846 L532.385,621.557 L574.873,629.647 L616.84,620.321 L574.481,612.846 Z M666.217,610.885 L624.516,620.152 L672.104,628.549 L713.262,618.647 L666.217,610.885 Z M1168.763,611.967 L1150.694,619.243 L1214.649,627.764 L1232.104,619.606 L1168.763,611.967 Z M261.585,609.96 L202.259,619.514 L232.764,627.015 L292.017,616.784 L261.585,609.96 Z M755.993,609.912 L720.819,618.374 L771.405,626.72 L806.052,617.646 L755.993,609.912 Z M854.995,606.38 L813.425,617.267 L866.21,625.423 L906.122,614.018 L854.995,606.38 Z M351.184,608.09 L299.724,616.975 L335.389,624.973 L387.616,615.572 L351.184,608.09 Z M445.865,606.611 L395.543,615.669 L431.244,623.001 L481.115,613.322 L445.865,606.611 Z M1026.478,604.206 L992.521,614.949 L1049.659,622.6 L1080.974,611.467 L1026.478,604.206 Z M931.581,608.302 L913.192,613.557 L966.684,621.548 L985.663,615.544 L931.581,608.302 Z M530.985,605.171 L489.057,613.308 L528.53,620.823 L570.486,612.141 L530.985,605.171 Z M620.451,603.334 L578.455,612.024 L620.661,619.472 L662.248,610.23 L620.451,603.334 Z M1105.509,604.338 L1087.331,610.801 L1147.678,618.841 L1165.673,611.594 L1105.509,604.338 Z M705.618,602.129 L670.143,610.012 L717.011,617.745 L752.083,609.307 L705.618,602.129 Z M802.974,598.609 L759.835,608.987 L809.698,616.691 L851.222,605.816 L802.974,598.609 Z M316.911,601.051 L265.575,609.318 L295.89,616.116 L347.16,607.264 L316.911,601.051 Z M404.913,598.814 L355.234,607.391 L391.589,614.857 L441.751,605.828 L404.913,598.814 Z M971.533,596.886 L935.187,607.272 L989.024,614.481 L1022.977,603.74 L971.533,596.886 Z M876.049,600.866 L858.683,605.414 L909.608,613.022 L927.866,607.805 L876.049,600.866 Z M492.044,598.299 L449.988,605.869 L485.086,612.551 L526.863,604.443 L492.044,598.299 Z M577.212,596.199 L535.097,604.373 L574.46,611.319 L616.333,602.654 L577.212,596.199 Z M1047.989,597.402 L1029.844,603.142 L1084.07,610.366 L1102.16,603.935 L1047.989,597.402 Z M660.193,595.11 L624.539,602.488 L666.175,609.358 L701.542,601.499 L660.193,595.11 Z M754.226,591.326 L709.647,601.233 L755.925,608.383 L799.013,598.017 L754.226,591.326 Z M918.319,589.796 L879.872,599.865 L931.472,606.774 L967.811,596.39 L918.319,589.796 Z M370.955,592.348 L321.09,600.378 L351.211,606.564 L400.721,598.016 L370.955,592.348 Z M450.426,590.955 L409.118,598.087 L445.874,605.086 L487.769,597.545 L450.426,590.955 Z M823.076,593.772 L806.863,597.673 L854.909,604.85 L872.127,600.341 L823.076,593.772 Z M538.859,589.871 L496.318,597.529 L530.975,603.645 L572.957,595.497 L538.859,589.871 Z M992.954,590.764 L975.144,595.854 L1026.342,602.675 L1044.385,596.967 L992.954,590.764 Z M617.118,588.455 L581.446,595.378 L620.421,601.808 L655.954,594.455 L617.118,588.455 Z M710.236,584.755 L664.393,594.241 L705.571,600.603 L750.093,590.709 L710.236,584.755 Z M867.659,583.046 L827.117,592.8 L875.95,599.339 L914.389,589.272 L867.659,583.046 Z M416.634,584.992 L375.3,591.648 L404.927,597.289 L446.067,590.186 L416.634,584.992 Z M773.247,587.1 L758.307,590.42 L802.902,597.081 L818.95,593.22 L773.247,587.1 Z M496.847,582.939 L454.79,590.201 L492.044,596.775 L534.444,589.143 L496.847,582.939 Z M939.319,584.296 L922.148,588.793 L971.422,595.358 L989.116,590.302 L939.319,584.296 Z M579.241,582.603 L543.267,589.078 L577.191,594.676 L612.735,587.778 L579.241,582.603 Z M668.392,578.504 L621.473,587.61 L660.154,593.586 L705.936,584.113 L668.392,578.504 Z M820.04,576.702 L777.496,586.156 L822.991,592.248 L863.527,582.496 L820.04,576.702 Z M728.11,581.056 L714.492,583.874 L754.174,589.802 L768.932,586.522 L728.11,581.056 Z M463.524,577.441 L421.149,584.265 L450.432,589.432 L492.341,582.196 L463.524,577.441 Z M536.788,576.043 L501.35,582.162 L538.851,588.35 L574.688,581.899 L536.788,576.043 Z M888.128,578.122 L871.707,582.073 L918.218,588.269 L935.258,583.806 L888.128,578.122 Z M632.117,573.085 L583.779,581.786 L617.09,586.933 L663.944,577.84 L632.117,573.085 Z M776.917,570.956 L732.55,580.137 L773.181,585.578 L815.716,576.126 L776.917,570.956 Z M684.992,575.282 L672.807,577.647 L710.192,583.232 L723.616,580.454 L684.992,575.282 Z M839.848,572.3 L824.296,575.756 L867.575,581.522 L883.85,577.606 L839.848,572.3 Z M503.827,570.951 L468.187,576.69 L496.844,581.419 L532.139,575.325 L503.827,570.951 Z M590.193,566.822 L541.427,575.242 L579.226,581.082 L627.491,572.394 L590.193,566.822 Z M735.627,565.455 L689.605,574.387 L728.056,579.536 L772.416,570.357 L735.627,565.455 Z M647.672,570.285 L636.721,572.256 L668.36,576.983 L680.336,574.659 L647.672,570.285 Z M795.987,567.01 L781.365,570.036 L819.972,575.18 L835.365,571.759 L795.987,567.01 Z M558.689,562.116 L508.637,570.176 L536.778,574.524 L585.47,566.117 L558.689,562.116 Z M700.502,560.775 L652.492,569.417 L684.949,573.763 L730.96,564.833 L700.502,560.775 Z M604.004,564.437 L594.902,566.009 L632.095,571.565 L642.818,569.635 L604.004,564.437 Z M753.818,561.925 L740.25,564.558 L776.864,569.436 L791.312,566.446 L753.818,561.925 Z M658.006,555.113 L608.94,563.585 L647.638,568.767 L695.637,560.127 L658.006,555.113 Z M571.391,560.07 L563.574,561.329 L590.179,565.304 L599.044,563.773 L571.391,560.07 Z M718.068,557.613 L705.331,559.906 L735.582,563.936 L748.963,561.339 L718.068,557.613 Z M627.452,551.042 L576.521,559.244 L603.98,562.921 L653.035,554.451 L627.452,551.042 Z M414.611,539.076 L558.685,560.599 L566.246,559.381 L414.611,539.076 Z M1408.773,433.285 L723.095,556.708 L753.765,560.407 L1408.773,433.285 Z M674.18,552.32 L662.952,554.259 L700.467,559.258 L713,557.002 L674.18,552.32 Z M642.926,548.551 L632.593,550.215 L657.981,553.597 L668.996,551.695 L642.926,548.551 Z M1300.373,442.681 L648.292,547.687 L674.149,550.805 L1300.373,442.681 Z M402.304,519.532 L627.436,549.527 L637.534,547.901 L402.304,519.532 Z" mask="url(#grid_octocat-c)"/>
    <g stroke-linecap="round" stroke-linejoin="round" stroke-width="2" mask="url(#grid_octocat-c)">
      <g transform="translate(69 597)">
        <line x1="935" x2="1182" y1="198" y2="61" stroke="url(#grid_octocat-d)" filter="url(#grid_octocat-e)"/>
        <line x1="935" x2="1182" y1="199" y2="62" stroke="url(#grid_octocat-d)" filter="url(#grid_octocat-f)"/>
        <line x1="980" x2="799.5" y2="56.5" stroke="url(#grid_octocat-g)" filter="url(#grid_octocat-h)"/>
        <line x1="567" x2="202.06" y1="130" y2="40.78" stroke="url(#grid_octocat-i)" filter="url(#grid_octocat-j)"/>
        <line x1="269" y1="180" y2="85.5" stroke="url(#grid_octocat-k)" filter="url(#grid_octocat-l)"/>
        <line x1="1255" x2="885" y1="121" y2="60" stroke="url(#grid_octocat-m)" filter="url(#grid_octocat-n)"/>
        <line x1="327" x2="657.396" y1="128.5" y2="42.736" stroke="url(#grid_octocat-o)" filter="url(#grid_octocat-p)"/>
        <line x1="578.5" x2="917" y1="224" y2="87" stroke="url(#grid_octocat-q)" filter="url(#grid_octocat-r)"/>
      </g>
    </g>
    <g stroke-linecap="round" stroke-linejoin="round" stroke-width="2" mask="url(#grid_octocat-c)">
      <g transform="translate(69 597)">
        <line x1="935" x2="1182" y1="198" y2="61" stroke="url(#grid_octocat-d)"/>
        <line x1="578.5" x2="917" y1="224" y2="87" stroke="url(#grid_octocat-q)"/>
        <line x1="980" x2="799.5" y2="56.5" stroke="url(#grid_octocat-g)"/>
        <line x1="327" x2="657.396" y1="128.5" y2="42.736" stroke="url(#grid_octocat-o)"/>
        <line x1="567" x2="202.06" y1="130" y2="40.78" stroke="url(#grid_octocat-i)"/>
        <line x1="269" y1="180" y2="85.5" stroke="url(#grid_octocat-k)"/>
        <line x1="1255" x2="885" y1="121" y2="60" stroke="url(#grid_octocat-m)"/>
      </g>
    </g>
  </g>
</svg>
